<svg width="40" height="40" viewBox="0 0 40 40" fill="none" xmlns="http://www.w3.org/2000/svg">
<mask id="mask0_469_3264" style="mask-type:alpha" maskUnits="userSpaceOnUse" x="0" y="0" width="40" height="40">
<rect width="40" height="40" fill="#D9D9D9"/>
</mask>
<g mask="url(#mask0_469_3264)">
<path d="M18.6111 36.6666V28.9443L12.6667 34.861L10.6945 32.9166L18.6111 24.9999V21.3888H15L7.19446 29.1944L5.19446 27.2777L11.0556 21.3888H3.33334V18.611H11.0556L5.11113 12.6388L7.08334 10.6666L15 18.611H18.6111V14.9721L10.8055 7.16659L12.75 5.16659L18.6111 11.0277V3.33325H21.3889V11.0277L27.3611 5.08325L29.3055 7.05546L21.3889 14.9721V18.611H25.0278L32.8611 10.7777L34.8333 12.7221L28.9722 18.611H36.6667V21.3888H28.9722L34.8611 27.3333L32.9445 29.3055L25.0278 21.3888H21.3889V24.9999L29.3055 32.9444L27.3889 34.9166L21.3889 28.9443V36.6666H18.6111Z" fill="#444444"/>
</g>
</svg>
