<svg width="24" height="24" viewBox="0 0 24 24" fill="none" xmlns="http://www.w3.org/2000/svg">
<mask id="mask0_1610_297" style="mask-type:alpha" maskUnits="userSpaceOnUse" x="0" y="0" width="24" height="24">
<rect width="24" height="24" fill="#D9D9D9"/>
</mask>
<g mask="url(#mask0_1610_297)">
<path d="M16 16C16.8334 16 17.5417 16.2917 18.125 16.875C18.7084 17.4583 19 18.1667 19 19C19 19.8333 18.7084 20.5417 18.125 21.125C17.5417 21.7083 16.8334 22 16 22C15.3667 22 14.7959 21.8167 14.2875 21.45C13.7792 21.0833 13.4167 20.6 13.2 20H6.85004L5.85004 21.55C5.70004 21.7833 5.48754 21.9292 5.21254 21.9875C4.93754 22.0458 4.68337 22 4.45004 21.85C4.2167 21.7 4.07087 21.4875 4.01254 21.2125C3.9542 20.9375 4.00004 20.6833 4.15004 20.45L8.10004 14.4C6.90004 13.85 5.9167 13.0042 5.15004 11.8625C4.38337 10.7208 4.00004 9.43333 4.00004 8H18C18 9.43333 17.6167 10.7208 16.85 11.8625C16.0834 13.0042 15.1 13.85 13.9 14.4L14.475 15.3C14.125 15.4667 13.8375 15.6333 13.6125 15.8C13.3875 15.9667 13.1417 16.2 12.875 16.5L11.875 14.95C11.7417 14.9833 11.6 15 11.45 15H10.55C10.4 15 10.2584 14.9833 10.125 14.95L8.15004 18H13.2C13.4167 17.4 13.7792 16.9167 14.2875 16.55C14.7959 16.1833 15.3667 16 16 16ZM16 20C16.2834 20 16.5209 19.9042 16.7125 19.7125C16.9042 19.5208 17 19.2833 17 19C17 18.7167 16.9042 18.4792 16.7125 18.2875C16.5209 18.0958 16.2834 18 16 18C15.7167 18 15.4792 18.0958 15.2875 18.2875C15.0959 18.4792 15 18.7167 15 19C15 19.2833 15.0959 19.5208 15.2875 19.7125C15.4792 19.9042 15.7167 20 16 20ZM11 13C12 13 12.9125 12.725 13.7375 12.175C14.5625 11.625 15.1834 10.9 15.6 10H6.40004C6.83337 10.9 7.45837 11.625 8.27504 12.175C9.0917 12.725 10 13 11 13ZM8.40004 7C8.48337 6.51667 8.47087 6.10833 8.36254 5.775C8.2542 5.44167 8.02504 5.05833 7.67504 4.625C7.3417 4.19167 7.12087 3.77917 7.01254 3.3875C6.9042 2.99583 6.8917 2.53333 6.97504 2H7.97504C7.8917 2.48333 7.9042 2.8875 8.01254 3.2125C8.12087 3.5375 8.35004 3.91667 8.70004 4.35C9.05004 4.78333 9.27504 5.19583 9.37504 5.5875C9.47504 5.97917 9.48337 6.45 9.40004 7H8.40004ZM10.9 7C10.9834 6.51667 10.975 6.10833 10.875 5.775C10.775 5.44167 10.55 5.05833 10.2 4.625C9.85004 4.20833 9.62087 3.80417 9.51254 3.4125C9.4042 3.02083 9.3917 2.55 9.47504 2H10.475C10.3917 2.48333 10.4042 2.8875 10.5125 3.2125C10.6209 3.5375 10.85 3.91667 11.2 4.35C11.5334 4.76667 11.7542 5.17083 11.8625 5.5625C11.9709 5.95417 11.9834 6.43333 11.9 7H10.9ZM13.4 7C13.4834 6.51667 13.475 6.10833 13.375 5.775C13.275 5.44167 13.05 5.05833 12.7 4.625C12.35 4.20833 12.1209 3.80417 12.0125 3.4125C11.9042 3.02083 11.8917 2.55 11.975 2H12.975C12.8917 2.48333 12.9042 2.8875 13.0125 3.2125C13.1209 3.5375 13.35 3.91667 13.7 4.35C14.0334 4.76667 14.2542 5.17083 14.3625 5.5625C14.4709 5.95417 14.4834 6.43333 14.4 7H13.4Z" fill="#444444"/>
</g>
</svg>
