<svg width="20" height="20" viewBox="0 0 20 20" fill="none" xmlns="http://www.w3.org/2000/svg">
<mask id="mask0_718_357" style="mask-type:alpha" maskUnits="userSpaceOnUse" x="0" y="0" width="20" height="20">
<rect width="20" height="20" fill="#D9D9D9"/>
</mask>
<g mask="url(#mask0_718_357)">
<path d="M8 14H11.375C11.5649 14 11.7409 13.9514 11.9029 13.8542C12.0648 13.7569 12.1847 13.6254 12.2625 13.4595L13.8958 10.2083C13.9236 10.1389 13.9479 10.0648 13.9688 9.9861C13.9896 9.90741 14 9.82871 14 9.75V9.5C14 9.21667 13.9042 8.97917 13.7125 8.7875C13.5208 8.59583 13.2833 8.5 13 8.5H10.5L10.9167 6.39583C10.9444 6.26686 10.941 6.14434 10.9062 6.02827C10.8715 5.9122 10.8056 5.80556 10.7083 5.70833L10 5L7.20833 8.72917C7.13889 8.82639 7.08681 8.92274 7.05208 9.01823C7.01736 9.11372 7 9.21875 7 9.33333V13C7 13.275 7.09792 13.5104 7.29375 13.7063C7.48958 13.9021 7.725 14 8 14ZM10.0058 18C8.9047 18 7.86806 17.7917 6.89583 17.375C5.92361 16.9583 5.07292 16.3854 4.34375 15.6562C3.61458 14.9271 3.04167 14.0767 2.625 13.105C2.20833 12.1334 2 11.0952 2 9.99046C2 8.88571 2.20833 7.85069 2.625 6.88542C3.04167 5.92014 3.61458 5.07292 4.34375 4.34375C5.07292 3.61458 5.92332 3.04167 6.89496 2.625C7.86661 2.20833 8.90481 2 10.0095 2C11.1143 2 12.1493 2.20833 13.1146 2.625C14.0799 3.04167 14.9271 3.61458 15.6562 4.34375C16.3854 5.07292 16.9583 5.92169 17.375 6.89008C17.7917 7.85849 18 8.89321 18 9.99425C18 11.0953 17.7917 12.1319 17.375 13.1042C16.9583 14.0764 16.3854 14.9271 15.6562 15.6562C14.9271 16.3854 14.0783 16.9583 13.1099 17.375C12.1415 17.7917 11.1068 18 10.0058 18ZM10 16.5C11.8056 16.5 13.3403 15.8681 14.6042 14.6042C15.8681 13.3403 16.5 11.8056 16.5 10C16.5 8.19444 15.8681 6.65972 14.6042 5.39583C13.3403 4.13194 11.8056 3.5 10 3.5C8.19444 3.5 6.65972 4.13194 5.39583 5.39583C4.13194 6.65972 3.5 8.19444 3.5 10C3.5 11.8056 4.13194 13.3403 5.39583 14.6042C6.65972 15.8681 8.19444 16.5 10 16.5Z" fill="#569A09"/>
</g>
</svg>
