<svg width="24" height="24" viewBox="0 0 24 24" fill="none" xmlns="http://www.w3.org/2000/svg">
<mask id="mask0_1610_267" style="mask-type:alpha" maskUnits="userSpaceOnUse" x="0" y="0" width="24" height="24">
<rect width="24" height="24" fill="#D9D9D9"/>
</mask>
<g mask="url(#mask0_1610_267)">
<path d="M17.525 15L15.35 13.75L18.85 11.15L21 12.4L17.525 15ZM12.8 11.95L15.4 9.97503L8.5 6.00003L7 8.60003L12.8 11.95ZM4 20V18H9V12.05L6 10.325C5.51667 10.0417 5.20417 9.63753 5.0625 9.11253C4.92083 8.58753 4.99167 8.08337 5.275 7.60003L6.775 5.00003C7.05833 4.5167 7.4625 4.2042 7.9875 4.06253C8.5125 3.92087 9.01667 3.9917 9.5 4.27503L19.025 9.77503L12.925 14.325L11 13.225V18C11 18.55 10.8042 19.0209 10.4125 19.4125C10.0208 19.8042 9.55 20 9 20H4Z" fill="#444444"/>
</g>
</svg>
