<svg width="24" height="24" viewBox="0 0 24 24" fill="none" xmlns="http://www.w3.org/2000/svg">
<mask id="mask0_1298_297" style="mask-type:alpha" maskUnits="userSpaceOnUse" x="0" y="0" width="24" height="24">
<rect width="24" height="24" fill="#D9D9D9"/>
</mask>
<g mask="url(#mask0_1298_297)">
<path d="M6.52505 19C5.67505 19 4.96672 18.7167 4.40005 18.15C3.83338 17.5833 3.55005 16.875 3.55005 16.025C3.55005 15.175 3.83338 14.4625 4.40005 13.8875C4.96672 13.3125 5.67505 13.025 6.52505 13.025C7.37505 13.025 8.08338 13.3083 8.65005 13.875C9.21672 14.4417 9.50005 15.15 9.50005 16C9.50005 16.85 9.21672 17.5625 8.65005 18.1375C8.08338 18.7125 7.37505 19 6.52505 19ZM3.82505 10.975V5H5.10005V10.975H3.82505ZM6.52505 17.85C7.04172 17.85 7.46672 17.675 7.80005 17.325C8.13338 16.975 8.30005 16.5333 8.30005 16C8.30005 15.4667 8.13755 15.0292 7.81255 14.6875C7.48755 14.3458 7.05838 14.175 6.52505 14.175C6.00838 14.175 5.58338 14.3458 5.25005 14.6875C4.91672 15.0292 4.75005 15.4667 4.75005 16C4.75005 16.5333 4.91672 16.975 5.25005 17.325C5.58338 17.675 6.00838 17.85 6.52505 17.85ZM6.25005 10.975V5H7.65005L9.90005 8.8L9.85005 7.85V5H11.1V10.975H9.82505L7.42505 6.95L7.50005 7.9V10.975H6.25005ZM12.8 19C12.1 19 11.5417 18.775 11.125 18.325C10.7084 17.875 10.5 17.275 10.5 16.525V13.025H11.725V16.6C11.725 16.95 11.8292 17.2417 12.0375 17.475C12.2459 17.7083 12.5 17.825 12.8 17.825C13.1 17.825 13.35 17.7083 13.55 17.475C13.75 17.2417 13.85 16.95 13.85 16.6V13.025H15.075V16.525C15.075 17.275 14.8667 17.875 14.45 18.325C14.0334 18.775 13.4834 19 12.8 19ZM17.65 19V14.2H16.05V13.025H20.45V14.2H18.875V19H17.65Z" fill="#444444"/>
</g>
</svg>
