<svg width="24" height="24" viewBox="0 0 24 24" fill="none" xmlns="http://www.w3.org/2000/svg">
<mask id="mask0_525_453" style="mask-type:alpha" maskUnits="userSpaceOnUse" x="0" y="0" width="24" height="24">
<rect width="24" height="24" fill="#D9D9D9"/>
</mask>
<g mask="url(#mask0_525_453)">
<path d="M8.5 12C9.2 12 9.78333 11.7458 10.25 11.2375C10.7167 10.7292 11.0417 10.125 11.225 9.425L9.775 9.075C9.69167 9.44167 9.54583 9.77083 9.3375 10.0625C9.12917 10.3542 8.85 10.5 8.5 10.5C8.15 10.5 7.87083 10.3542 7.6625 10.0625C7.45417 9.77083 7.30833 9.44167 7.225 9.075L5.775 9.425C5.95833 10.125 6.28333 10.7292 6.75 11.2375C7.21667 11.7458 7.8 12 8.5 12ZM12 17.5C12.65 17.5 13.275 17.3542 13.875 17.0625C14.475 16.7708 15.0333 16.3333 15.55 15.75L14.45 14.75C14.0833 15.15 13.6917 15.4542 13.275 15.6625C12.8583 15.8708 12.4333 15.975 12 15.975C11.5667 15.975 11.1417 15.8708 10.725 15.6625C10.3083 15.4542 9.91667 15.15 9.55 14.75L8.45 15.75C8.98333 16.3333 9.54583 16.7708 10.1375 17.0625C10.7292 17.3542 11.35 17.5 12 17.5ZM15.5 12C16.2 12 16.7833 11.7458 17.25 11.2375C17.7167 10.7292 18.0417 10.125 18.225 9.425L16.775 9.075C16.6917 9.44167 16.5458 9.77083 16.3375 10.0625C16.1292 10.3542 15.85 10.5 15.5 10.5C15.15 10.5 14.8708 10.3542 14.6625 10.0625C14.4542 9.77083 14.3083 9.44167 14.225 9.075L12.775 9.425C12.9583 10.125 13.2833 10.7292 13.75 11.2375C14.2167 11.7458 14.8 12 15.5 12ZM12 22C10.6167 22 9.31667 21.7375 8.1 21.2125C6.88333 20.6875 5.825 19.975 4.925 19.075C4.025 18.175 3.3125 17.1167 2.7875 15.9C2.2625 14.6833 2 13.3833 2 12C2 10.6167 2.2625 9.31667 2.7875 8.1C3.3125 6.88333 4.025 5.825 4.925 4.925C5.825 4.025 6.88333 3.3125 8.1 2.7875C9.31667 2.2625 10.6167 2 12 2C13.3833 2 14.6833 2.2625 15.9 2.7875C17.1167 3.3125 18.175 4.025 19.075 4.925C19.975 5.825 20.6875 6.88333 21.2125 8.1C21.7375 9.31667 22 10.6167 22 12C22 13.3833 21.7375 14.6833 21.2125 15.9C20.6875 17.1167 19.975 18.175 19.075 19.075C18.175 19.975 17.1167 20.6875 15.9 21.2125C14.6833 21.7375 13.3833 22 12 22ZM12 20C14.2333 20 16.125 19.225 17.675 17.675C19.225 16.125 20 14.2333 20 12C20 9.76667 19.225 7.875 17.675 6.325C16.125 4.775 14.2333 4 12 4C9.76667 4 7.875 4.775 6.325 6.325C4.775 7.875 4 9.76667 4 12C4 14.2333 4.775 16.125 6.325 17.675C7.875 19.225 9.76667 20 12 20Z" fill="#444444"/>
</g>
</svg>
