<svg width="24" height="24" viewBox="0 0 24 24" fill="none" xmlns="http://www.w3.org/2000/svg">
<mask id="mask0_726_386" style="mask-type:alpha" maskUnits="userSpaceOnUse" x="0" y="0" width="24" height="24">
<rect width="24" height="24" fill="#D9D9D9"/>
</mask>
<g mask="url(#mask0_726_386)">
<path d="M4 22C3.16667 22 2.45833 21.7083 1.875 21.125C1.29167 20.5417 1 19.8333 1 19C1 18.1667 1.29167 17.4583 1.875 16.875C2.45833 16.2917 3.16667 16 4 16C4.83333 16 5.54167 16.2917 6.125 16.875C6.70833 17.4583 7 18.1667 7 19C7 19.8333 6.70833 20.5417 6.125 21.125C5.54167 21.7083 4.83333 22 4 22ZM4 20C4.28333 20 4.52083 19.9042 4.7125 19.7125C4.90417 19.5208 5 19.2833 5 19C5 18.7167 4.90417 18.4792 4.7125 18.2875C4.52083 18.0958 4.28333 18 4 18C3.71667 18 3.47917 18.0958 3.2875 18.2875C3.09583 18.4792 3 18.7167 3 19C3 19.2833 3.09583 19.5208 3.2875 19.7125C3.47917 19.9042 3.71667 20 4 20ZM8 22C8.23333 21.7 8.42083 21.3875 8.5625 21.0625C8.70417 20.7375 8.81667 20.3833 8.9 20H11V13C11 12.45 10.8042 11.9792 10.4125 11.5875C10.0208 11.1958 9.55 11 9 11H4V14C3.65 14 3.30417 14.0333 2.9625 14.1C2.62083 14.1667 2.3 14.2667 2 14.4V9H5V5.6C5 4.31667 5.44583 3.22917 6.3375 2.3375C7.22917 1.44583 8.31667 1 9.6 1C10.5333 1 11.3833 1.25417 12.15 1.7625C12.9167 2.27083 13.4833 2.95 13.85 3.8L20.675 20H23V22H16V20H18.5L12.025 4.6C11.825 4.11667 11.5042 3.72917 11.0625 3.4375C10.6208 3.14583 10.1333 3 9.6 3C8.86667 3 8.25 3.25 7.75 3.75C7.25 4.25 7 4.86667 7 5.6V9H9C10.1 9 11.0417 9.39167 11.825 10.175C12.6083 10.9583 13 11.9 13 13V22H8Z" fill="#444444"/>
</g>
</svg>
