<svg width="40" height="40" viewBox="0 0 40 40" fill="none" xmlns="http://www.w3.org/2000/svg">
<mask id="mask0_470_262" style="mask-type:alpha" maskUnits="userSpaceOnUse" x="0" y="0" width="40" height="40">
<rect width="40" height="40" fill="#D9D9D9"/>
</mask>
<g mask="url(#mask0_470_262)">
<path d="M9.4445 36.6666C8.71303 36.6666 8.06721 36.3911 7.50704 35.8402C6.94685 35.2893 6.66675 34.6388 6.66675 33.8888V6.111C6.66675 5.37953 6.94685 4.73371 7.50704 4.17354C8.06721 3.61335 8.71303 3.33325 9.4445 3.33325H33.3334V6.111H29.25V8.88879C29.25 9.30543 29.0811 9.68738 28.7431 10.0346C28.4052 10.3819 28.0278 10.5555 27.6112 10.5555H15.2223C14.8057 10.5555 14.4283 10.3819 14.0904 10.0346C13.7524 9.68738 13.5834 9.30543 13.5834 8.88879V6.111H9.4445V33.8888H16.9167C15.8612 33.1573 15.0417 32.2569 14.4584 31.1875C13.8751 30.118 13.5834 28.8611 13.5834 27.4166V19.2777H29.25V27.4166C29.25 28.8611 28.9537 30.118 28.3612 31.1875C27.7686 32.2569 26.9445 33.1573 25.889 33.8888H33.3334V36.6666H9.4445ZM21.4029 32.611C22.8195 32.611 24.0186 32.106 25.0001 31.096C25.9816 30.086 26.4723 28.8595 26.4723 27.4166V22.0555H16.3612V27.4166C16.3612 28.8595 16.8473 30.086 17.8195 31.096C18.7917 32.106 19.9862 32.611 21.4029 32.611ZM21.389 16.6666C21.8533 16.6666 22.2426 16.5095 22.5567 16.1954C22.8708 15.8813 23.0278 15.492 23.0278 15.0277C23.0278 14.5633 22.8708 14.1741 22.5567 13.86C22.2426 13.5459 21.8533 13.3888 21.389 13.3888C20.9246 13.3888 20.5354 13.5459 20.2212 13.86C19.9071 14.1741 19.7501 14.5633 19.7501 15.0277C19.7501 15.492 19.9071 15.8813 20.2212 16.1954C20.5354 16.5095 20.9246 16.6666 21.389 16.6666Z" fill="#444444"/>
</g>
</svg>
