<svg width="24" height="24" viewBox="0 0 24 24" fill="none" xmlns="http://www.w3.org/2000/svg">
<mask id="mask0_482_432" style="mask-type:alpha" maskUnits="userSpaceOnUse" x="0" y="0" width="24" height="24">
<rect width="24" height="24" fill="#D9D9D9"/>
</mask>
<g mask="url(#mask0_482_432)">
<path d="M12 22C9.31667 19.7167 7.3125 17.5958 5.9875 15.6375C4.6625 13.6792 4 11.8667 4 10.2C4 7.7 4.80417 5.70833 6.4125 4.225C8.02083 2.74167 9.88333 2 12 2C14.1167 2 15.9792 2.74167 17.5875 4.225C19.1958 5.70833 20 7.7 20 10.2L22.1 8.1L23.5 9.5L19 14L14.5 9.5L15.9 8.1L18 10.2C18 8.38333 17.4208 6.89583 16.2625 5.7375C15.1042 4.57917 13.6833 4 12 4C10.3167 4 8.89583 4.57917 7.7375 5.7375C6.57917 6.89583 6 8.38333 6 10.2C6 11.3833 6.49167 12.7375 7.475 14.2625C8.45833 15.7875 9.96667 17.4833 12 19.35C12.3333 19.05 12.6417 18.7583 12.925 18.475L13.775 17.625C13.6917 17.4583 13.625 17.2792 13.575 17.0875C13.525 16.8958 13.5 16.7 13.5 16.5C13.5 15.8 13.7417 15.2083 14.225 14.725C14.7083 14.2417 15.3 14 16 14C16.7 14 17.2917 14.2417 17.775 14.725C18.2583 15.2083 18.5 15.8 18.5 16.5C18.5 17.2 18.2583 17.7917 17.775 18.275C17.2917 18.7583 16.7 19 16 19C15.8667 19 15.7458 18.9917 15.6375 18.975C15.5292 18.9583 15.4167 18.9333 15.3 18.9C14.8167 19.4 14.3042 19.9083 13.7625 20.425C13.2208 20.9417 12.6333 21.4667 12 22Z" fill="#1C1B1F"/>
</g>
</svg>
