<svg width="40" height="40" viewBox="0 0 40 40" fill="none" xmlns="http://www.w3.org/2000/svg">
<mask id="mask0_475_360" style="mask-type:alpha" maskUnits="userSpaceOnUse" x="0" y="0" width="40" height="40">
<rect width="40" height="40" fill="#D9D9D9"/>
</mask>
<g mask="url(#mask0_475_360)">
<path d="M20 36.6666C15.6389 32.9166 12.3264 29.4235 10.0625 26.1874C7.7986 22.9513 6.66666 19.8888 6.66666 16.9999C6.66666 12.8518 8.01156 9.53696 10.7014 7.05546C13.3912 4.57399 16.4907 3.33325 20 3.33325C23.6574 3.33325 26.8032 4.61566 29.4375 7.18046C32.0717 9.74529 33.3889 13.2407 33.3889 17.6666L37.1667 13.8888L39.1111 15.8333L32 22.9443L24.8889 15.8333L26.8333 13.8888L30.6111 17.6666C30.6111 14.2129 29.6134 11.4235 27.6181 9.29854C25.6227 7.17352 23.0833 6.111 20 6.111C17.0463 6.111 14.5486 7.13184 12.5069 9.1735C10.4652 11.2152 9.44441 13.824 9.44441 16.9999C9.44441 19.1759 10.3287 21.5856 12.0972 24.2291C13.8657 26.8726 16.5 29.7962 20 33C20.5555 32.5 21.125 31.9583 21.7083 31.3749L23.2917 29.7916C23.1343 29.4768 23.0093 29.155 22.9167 28.8263C22.8241 28.4976 22.7778 28.1759 22.7778 27.861C22.7778 26.7685 23.1574 25.8472 23.9167 25.0972C24.6759 24.3472 25.5926 23.9722 26.6667 23.9722C27.7592 23.9722 28.6805 24.3472 29.4305 25.0972C30.1805 25.8472 30.5555 26.7685 30.5555 27.861C30.5555 28.9536 30.1805 29.8749 29.4305 30.6249C28.6805 31.3749 27.7592 31.7499 26.6667 31.7499C26.463 31.7499 26.2616 31.736 26.0625 31.7083C25.8634 31.6805 25.6481 31.6295 25.4167 31.5555C24.5741 32.4259 23.7245 33.2731 22.868 34.0971C22.0116 34.9212 21.0555 35.7777 20 36.6666Z" fill="#444444"/>
</g>
</svg>
