<svg width="24" height="24" viewBox="0 0 24 24" fill="none" xmlns="http://www.w3.org/2000/svg">
<mask id="mask0_1235_273" style="mask-type:alpha" maskUnits="userSpaceOnUse" x="0" y="0" width="24" height="24">
<rect width="24" height="24" fill="#D9D9D9"/>
</mask>
<g mask="url(#mask0_1235_273)">
<path d="M4.32499 9H19.675L18.825 6H5.19999L4.32499 9ZM16.8 11H7.22499L6.94999 13H17.05L16.8 11ZM3.99999 20L5.22499 11H2.99999C2.66666 11 2.40416 10.8667 2.21249 10.6C2.02083 10.3333 1.96666 10.0417 2.04999 9.725L3.47499 4.725C3.54166 4.50833 3.65833 4.33333 3.82499 4.2C3.99166 4.06667 4.19166 4 4.42499 4H19.575C19.8083 4 20.0083 4.06667 20.175 4.2C20.3417 4.33333 20.4583 4.50833 20.525 4.725L21.95 9.725C22.0333 10.0417 21.9792 10.3333 21.7875 10.6C21.5958 10.8667 21.3333 11 21 11H18.8L20 20H18L17.325 15H6.67499L5.99999 20H3.99999Z" fill="#444444"/>
</g>
</svg>
