<svg width="24" height="24" viewBox="0 0 24 24" fill="none" xmlns="http://www.w3.org/2000/svg">
<mask id="mask0_652_582" style="mask-type:alpha" maskUnits="userSpaceOnUse" x="0" y="0" width="24" height="24">
<rect width="24" height="24" fill="#D9D9D9"/>
</mask>
<g mask="url(#mask0_652_582)">
<path d="M5 11V19H19V11H5ZM5 9H19V5H5V9ZM12 18C11.45 18 10.9792 17.8042 10.5875 17.4125C10.1958 17.0208 10 16.55 10 16C10 15.55 10.125 15.0708 10.375 14.5625C10.625 14.0542 11.1667 13.2 12 12C12.8333 13.2 13.375 14.0542 13.625 14.5625C13.875 15.0708 14 15.55 14 16C14 16.55 13.8042 17.0208 13.4125 17.4125C13.0208 17.8042 12.55 18 12 18ZM17 8C17.2833 8 17.5208 7.90417 17.7125 7.7125C17.9042 7.52083 18 7.28333 18 7C18 6.71667 17.9042 6.47917 17.7125 6.2875C17.5208 6.09583 17.2833 6 17 6C16.7167 6 16.4792 6.09583 16.2875 6.2875C16.0958 6.47917 16 6.71667 16 7C16 7.28333 16.0958 7.52083 16.2875 7.7125C16.4792 7.90417 16.7167 8 17 8ZM5 21C4.45 21 3.97917 20.8042 3.5875 20.4125C3.19583 20.0208 3 19.55 3 19V5C3 4.45 3.19583 3.97917 3.5875 3.5875C3.97917 3.19583 4.45 3 5 3H19C19.55 3 20.0208 3.19583 20.4125 3.5875C20.8042 3.97917 21 4.45 21 5V19C21 19.55 20.8042 20.0208 20.4125 20.4125C20.0208 20.8042 19.55 21 19 21H5Z" fill="#444444"/>
</g>
</svg>
