<svg width="20" height="20" viewBox="0 0 20 20" fill="none" xmlns="http://www.w3.org/2000/svg">
<mask id="mask0_714_298" style="mask-type:alpha" maskUnits="userSpaceOnUse" x="0" y="0" width="20" height="20">
<rect width="20" height="20" fill="#D9D9D9"/>
</mask>
<g mask="url(#mask0_714_298)">
<path d="M9.29167 15.5H10.6875V14.5208C11.3681 14.4097 11.9306 14.1181 12.375 13.6458C12.8194 13.1736 13.0417 12.625 13.0417 12C13.0417 11.375 12.8507 10.8403 12.4688 10.3958C12.0868 9.95139 11.5 9.58333 10.7083 9.29167C9.86111 8.98611 9.30208 8.72569 9.03125 8.51042C8.76042 8.29514 8.625 8.01389 8.625 7.66667C8.625 7.38889 8.74653 7.15972 8.98958 6.97917C9.23264 6.79861 9.54861 6.70833 9.9375 6.70833C10.3264 6.70833 10.6667 6.80208 10.9583 6.98958C11.25 7.17708 11.4444 7.43056 11.5417 7.75L12.7708 7.22917C12.6042 6.77083 12.3368 6.38542 11.9688 6.07292C11.6007 5.76042 11.1736 5.5625 10.6875 5.47917V4.5H9.3125V5.5C8.6875 5.63889 8.1875 5.90625 7.8125 6.30208C7.4375 6.69792 7.25 7.15972 7.25 7.6875C7.25 8.3125 7.46181 8.84375 7.88542 9.28125C8.30903 9.71875 8.97917 10.0972 9.89583 10.4167C10.5208 10.6389 10.9757 10.875 11.2604 11.125C11.5451 11.375 11.6875 11.6667 11.6875 12C11.6875 12.3611 11.5417 12.6632 11.25 12.9062C10.9583 13.1493 10.5972 13.2708 10.1667 13.2708C9.70833 13.2708 9.30208 13.1181 8.94792 12.8125C8.59375 12.5069 8.35417 12.1111 8.22917 11.625L6.9375 12.1667C7.10417 12.75 7.39583 13.2465 7.8125 13.6562C8.22917 14.066 8.72222 14.3472 9.29167 14.5V15.5ZM10 18C8.90278 18 7.86806 17.7917 6.89583 17.375C5.92361 16.9583 5.07292 16.3854 4.34375 15.6562C3.61458 14.9271 3.04167 14.0764 2.625 13.1042C2.20833 12.1319 2 11.0972 2 10C2 8.88889 2.20833 7.85069 2.625 6.88542C3.04167 5.92014 3.61458 5.07292 4.34375 4.34375C5.07292 3.61458 5.92361 3.04167 6.89583 2.625C7.86806 2.20833 8.90278 2 10 2C11.1111 2 12.1493 2.20833 13.1146 2.625C14.0799 3.04167 14.9271 3.61458 15.6562 4.34375C16.3854 5.07292 16.9583 5.92014 17.375 6.88542C17.7917 7.85069 18 8.88889 18 10C18 11.0972 17.7917 12.1319 17.375 13.1042C16.9583 14.0764 16.3854 14.9271 15.6562 15.6562C14.9271 16.3854 14.0799 16.9583 13.1146 17.375C12.1493 17.7917 11.1111 18 10 18ZM10 16.5C11.8056 16.5 13.3403 15.8681 14.6042 14.6042C15.8681 13.3403 16.5 11.8056 16.5 10C16.5 8.19444 15.8681 6.65972 14.6042 5.39583C13.3403 4.13194 11.8056 3.5 10 3.5C8.19444 3.5 6.65972 4.13194 5.39583 5.39583C4.13194 6.65972 3.5 8.19444 3.5 10C3.5 11.8056 4.13194 13.3403 5.39583 14.6042C6.65972 15.8681 8.19444 16.5 10 16.5Z" fill="#569A09"/>
</g>
</svg>
