<svg width="40" height="40" viewBox="0 0 40 40" fill="none" xmlns="http://www.w3.org/2000/svg">
<mask id="mask0_475_366" style="mask-type:alpha" maskUnits="userSpaceOnUse" x="0" y="0" width="40" height="40">
<rect width="40" height="40" fill="#D9D9D9"/>
</mask>
<g mask="url(#mask0_475_366)">
<path d="M13.2778 31.861H15.5V20.3888C16.2778 20.2407 16.9352 19.8634 17.4722 19.2569C18.0093 18.6504 18.2778 17.9414 18.2778 17.1299V10.7499C18.2778 10.4907 18.1834 10.2731 17.9945 10.0971C17.8056 9.92121 17.5852 9.83325 17.3333 9.83325C17.0741 9.83325 16.8565 9.92121 16.6806 10.0971C16.5046 10.2731 16.4167 10.4872 16.4167 10.7396V15.4722H15.3889V10.7396C15.3889 10.4872 15.3009 10.2731 15.125 10.0971C14.9491 9.92121 14.7315 9.83325 14.4722 9.83325C14.213 9.83325 13.9954 9.92121 13.8195 10.0971C13.6435 10.2731 13.5556 10.4872 13.5556 10.7396V15.4722H12.3333V10.7396C12.3333 10.4872 12.2454 10.2731 12.0695 10.0971C11.8935 9.92121 11.6759 9.83325 11.4167 9.83325C11.1574 9.83325 10.9398 9.92121 10.7639 10.0971C10.588 10.2731 10.5 10.4907 10.5 10.7499V17.1299C10.5 17.9414 10.7639 18.6504 11.2917 19.2569C11.8195 19.8634 12.4815 20.2407 13.2778 20.3888V31.861ZM23.6389 31.861H25.8611V20.9444C26.8148 20.537 27.5625 19.8388 28.1042 18.85C28.6458 17.8611 28.9167 16.7028 28.9167 15.3749C28.9167 13.7916 28.5282 12.4721 27.7513 11.4166C26.9744 10.361 25.9999 9.83325 24.8277 9.83325C23.6556 9.83325 22.6875 10.361 21.9236 11.4166C21.1597 12.4721 20.7778 13.7916 20.7778 15.3749C20.7778 16.7546 21.0301 17.9305 21.5348 18.9027C22.0394 19.8749 22.7408 20.5555 23.6389 20.9444V31.861ZM6.11109 36.6666C5.36109 36.6666 4.71064 36.3911 4.15972 35.8402C3.6088 35.2893 3.33334 34.6388 3.33334 33.8888V6.111C3.33334 5.361 3.6088 4.71054 4.15972 4.15963C4.71064 3.60871 5.36109 3.33325 6.11109 3.33325H33.8889C34.6389 3.33325 35.2894 3.60871 35.8403 4.15963C36.3912 4.71054 36.6667 5.361 36.6667 6.111V33.8888C36.6667 34.6388 36.3912 35.2893 35.8403 35.8402C35.2894 36.3911 34.6389 36.6666 33.8889 36.6666H6.11109ZM6.11109 33.8888H33.8889V6.111H6.11109V33.8888Z" fill="#444444"/>
</g>
</svg>
