<svg width="40" height="40" viewBox="0 0 40 40" fill="none" xmlns="http://www.w3.org/2000/svg">
<mask id="mask0_475_354" style="mask-type:alpha" maskUnits="userSpaceOnUse" x="0" y="0" width="40" height="40">
<rect width="40" height="40" fill="#D9D9D9"/>
</mask>
<g mask="url(#mask0_475_354)">
<path d="M11.6667 30.2778H16.6667V23.3333H18.3333V18.8889C18.3333 17.9722 18.0069 17.1875 17.3542 16.5347C16.7014 15.8819 15.9167 15.5555 15 15.5555H13.3333C12.4167 15.5555 11.6319 15.8819 10.9792 16.5347C10.3264 17.1875 10 17.9722 10 18.8889V23.3333H11.6667V30.2778ZM14.1667 14.0555C14.787 14.0555 15.3171 13.8356 15.757 13.3958C16.1968 12.956 16.4167 12.4259 16.4167 11.8055C16.4167 11.1852 16.1968 10.6551 15.757 10.2153C15.3171 9.77545 14.787 9.55554 14.1667 9.55554C13.5463 9.55554 13.0162 9.77545 12.5764 10.2153C12.1366 10.6551 11.9167 11.1852 11.9167 11.8055C11.9167 12.4259 12.1366 12.956 12.5764 13.3958C13.0162 13.8356 13.5463 14.0555 14.1667 14.0555ZM21.5278 18.0555H29.8611L25.6945 11.3889L21.5278 18.0555ZM25.6945 28.6111L29.8611 21.9445H21.5278L25.6945 28.6111ZM7.77775 35C7.02775 35 6.37729 34.7245 5.82637 34.1736C5.27546 33.6227 5 32.9722 5 32.2222V7.77775C5 7.04628 5.27546 6.40046 5.82637 5.84029C6.37729 5.2801 7.02775 5 7.77775 5H32.2222C32.9537 5 33.5995 5.2801 34.1597 5.84029C34.7199 6.40046 35 7.04628 35 7.77775V32.2222C35 32.9722 34.7199 33.6227 34.1597 34.1736C33.5995 34.7245 32.9537 35 32.2222 35H7.77775ZM7.77775 32.2222H32.2222V7.77775H7.77775V32.2222Z" fill="#444444"/>
</g>
</svg>
