<svg width="40" height="40" viewBox="0 0 40 40" fill="none" xmlns="http://www.w3.org/2000/svg">
<mask id="mask0_469_3168" style="mask-type:alpha" maskUnits="userSpaceOnUse" x="0" y="0" width="40" height="40">
<rect width="40" height="40" fill="#D9D9D9"/>
</mask>
<g mask="url(#mask0_469_3168)">
<path d="M8.61112 33.3333V30.5556H11.1945L14.625 19.2083C14.8102 18.6158 15.1458 18.1366 15.632 17.7708C16.1181 17.4051 16.6667 17.2222 17.2778 17.2222H22.7222C23.3333 17.2222 23.8819 17.4051 24.368 17.7708C24.8542 18.1366 25.1898 18.6158 25.375 19.2083L28.8055 30.5556H31.3889V33.3333H8.61112ZM14.1389 30.5556H25.8611L22.6945 20H17.3055L14.1389 30.5556ZM18.6111 12.7778V5H21.3889V12.7778H18.6111ZM28.4445 16.875L26.4583 14.8889L31.9861 9.40279L33.9305 11.3472L28.4445 16.875ZM30.5556 24.7222V21.9445H38.3333V24.7222H30.5556ZM11.5555 16.875L6.06946 11.3472L8.01387 9.40279L13.5417 14.8889L11.5555 16.875ZM1.66666 24.7222V21.9445H9.44441V24.7222H1.66666Z" fill="#444444"/>
</g>
</svg>
