<svg width="24" height="24" viewBox="0 0 24 24" fill="none" xmlns="http://www.w3.org/2000/svg">
<mask id="mask0_1915_267" style="mask-type:alpha" maskUnits="userSpaceOnUse" x="0" y="0" width="24" height="24">
<rect width="24" height="24" fill="#D9D9D9"/>
</mask>
<g mask="url(#mask0_1915_267)">
<path d="M20.65 9.37507L19.25 7.97507L20 7.20007L16.8 4.00007L16.025 4.75007L14.6 3.32507L15.35 2.55007C15.7334 2.16674 16.2084 1.97924 16.775 1.98757C17.3417 1.9959 17.8167 2.19174 18.2 2.57507L21.425 5.80007C21.8084 6.1834 22 6.65424 22 7.21257C22 7.7709 21.8084 8.24174 21.425 8.62507L20.65 9.37507ZM8.65002 21.4001C8.26669 21.7834 7.79586 21.9751 7.23752 21.9751C6.67919 21.9751 6.20836 21.7834 5.82502 21.4001L2.60002 18.1751C2.21669 17.7917 2.02502 17.3209 2.02502 16.7626C2.02502 16.2042 2.21669 15.7334 2.60002 15.3501L3.35002 14.6001L4.77502 16.0251L4.00002 16.7751L7.22502 20.0001L7.97502 19.2251L9.40002 20.6501L8.65002 21.4001ZM18.575 13.0001L20 11.5751L12.425 4.00007L11 5.42507L18.575 13.0001ZM11.575 20.0001L13 18.5501L5.45002 11.0001L4.00002 12.4251L11.575 20.0001ZM11.425 14.1501L14.175 11.4251L12.575 9.82507L9.85002 12.5751L11.425 14.1501ZM13 21.4001C12.6167 21.7834 12.1417 21.9751 11.575 21.9751C11.0084 21.9751 10.5334 21.7834 10.15 21.4001L2.60002 13.8501C2.21669 13.4667 2.02502 12.9917 2.02502 12.4251C2.02502 11.8584 2.21669 11.3834 2.60002 11.0001L4.02502 9.57507C4.40836 9.19174 4.87919 9.00007 5.43752 9.00007C5.99586 9.00007 6.46669 9.19174 6.85002 9.57507L8.42502 11.1501L11.175 8.40007L9.60002 6.85007C9.21669 6.46674 9.02502 5.99174 9.02502 5.42507C9.02502 4.8584 9.21669 4.3834 9.60002 4.00007L11.025 2.57507C11.4084 2.19174 11.8792 2.00007 12.4375 2.00007C12.9959 2.00007 13.4667 2.19174 13.85 2.57507L21.425 10.1501C21.8084 10.5334 22 11.0042 22 11.5626C22 12.1209 21.8084 12.5917 21.425 12.9751L20 14.4001C19.6167 14.7834 19.1417 14.9751 18.575 14.9751C18.0084 14.9751 17.5334 14.7834 17.15 14.4001L15.6 12.8251L12.85 15.5751L14.425 17.1501C14.8084 17.5334 15 18.0042 15 18.5626C15 19.1209 14.8084 19.5917 14.425 19.9751L13 21.4001Z" fill="#444444"/>
</g>
</svg>
