<svg width="40" height="40" viewBox="0 0 40 40" fill="none" xmlns="http://www.w3.org/2000/svg">
<mask id="mask0_469_3174" style="mask-type:alpha" maskUnits="userSpaceOnUse" x="0" y="0" width="40" height="40">
<rect width="40" height="40" fill="#D9D9D9"/>
</mask>
<g mask="url(#mask0_469_3174)">
<path d="M18.5556 33.9723C17.9352 32.176 17.1806 30.7825 16.2917 29.7917C15.4028 28.801 14.0833 27.9491 12.3333 27.2361C12.2314 27.9491 12.2083 28.5765 12.2638 29.1182C12.3194 29.6599 12.4306 30.0927 12.5973 30.4168C12.9306 31.0002 13.2963 31.4955 13.6945 31.9029C14.0926 32.3103 14.5417 32.6622 15.0417 32.9585C15.5417 33.2548 16.0834 33.4839 16.6667 33.646C17.25 33.808 17.8797 33.9168 18.5556 33.9723ZM21.4444 33.9723C23.5093 33.7779 25.0834 33.1992 26.1667 32.2362C27.2501 31.2732 27.9677 29.8009 28.3195 27.8194C27.7084 27.912 27.162 28.0093 26.6805 28.1112C26.199 28.213 25.787 28.3149 25.4444 28.4168C24.9258 28.7779 24.4652 29.1575 24.0624 29.5557C23.6597 29.9538 23.2963 30.3798 22.9722 30.8335C22.6481 31.2872 22.3657 31.7709 22.125 32.2848C21.8842 32.7987 21.6574 33.3612 21.4444 33.9723ZM20 18.889C22 18.889 23.7037 18.1853 25.1111 16.7779C26.5185 15.3705 27.2223 13.6667 27.2223 11.6667V8.47225L23.8333 11.3473L20 6.72229L16.1667 11.3473L12.7778 8.47225V11.6667C12.7778 13.6667 13.4815 15.3705 14.8889 16.7779C16.2963 18.1853 18 18.889 20 18.889ZM18.3333 36.6667C15.5556 36.6667 13.1944 35.6945 11.25 33.7501C9.30556 31.8056 8.33334 29.4445 8.33334 26.6667V23.3334C10.3056 23.3056 12.1667 23.7084 13.9167 24.5417C15.6667 25.3751 17.1389 26.5001 18.3333 27.9167V21.5672C15.9444 21.1799 13.9583 20.0598 12.375 18.2071C10.7917 16.3543 10 14.1742 10 11.6667V5.41675C10 4.80719 10.2732 4.37935 10.8195 4.13321C11.3657 3.88704 11.8611 3.96303 12.3055 4.36117L15.8333 7.41675L18.9305 3.66675C19.2061 3.33341 19.562 3.16675 19.9983 3.16675C20.4346 3.16675 20.7917 3.33341 21.0695 3.66675L24.1667 7.41675L27.6945 4.36117C28.1389 3.96303 28.6343 3.88704 29.1805 4.13321C29.7269 4.37935 30 4.80719 30 5.41675V11.6667C30 14.1738 29.2083 16.3535 27.625 18.2059C26.0417 20.0583 24.0556 21.1795 21.6667 21.5695V27.9167C22.8611 26.5001 24.3333 25.3752 26.0833 24.5421C27.8333 23.709 29.6944 23.3061 31.6667 23.3334V26.6667C31.6667 29.4445 30.6944 31.8056 28.75 33.7501C26.8056 35.6945 24.4444 36.6667 21.6667 36.6667H18.3333Z" fill="#444444"/>
</g>
</svg>
