<svg width="40" height="40" viewBox="0 0 40 40" fill="none" xmlns="http://www.w3.org/2000/svg">
<mask id="mask0_469_3234" style="mask-type:alpha" maskUnits="userSpaceOnUse" x="0" y="0" width="40" height="40">
<rect width="40" height="40" fill="#D9D9D9"/>
</mask>
<g mask="url(#mask0_469_3234)">
<path d="M34.9167 36.9027L29.7222 31.7083V35.8055H26.9445V26.9444H35.8055V29.7221H31.6667L36.8611 34.9166L34.9167 36.9027ZM20 36.6666C17.6944 36.6666 15.5278 36.2291 13.5 35.3541C11.4722 34.4791 9.70834 33.2916 8.20834 31.7916C6.70834 30.2916 5.52084 28.5336 4.64584 26.5176C3.77084 24.5017 3.33334 22.3476 3.33334 20.0555C3.33334 17.7408 3.77084 15.5656 4.64584 13.5298C5.52084 11.4939 6.70834 9.72309 8.20834 8.21717C9.70834 6.71122 11.4722 5.52075 13.5 4.64575C15.5278 3.77075 17.6944 3.33325 20 3.33325C22.3056 3.33325 24.4722 3.77075 26.5 4.64575C28.5278 5.52075 30.2917 6.71122 31.7917 8.21717C33.2917 9.72309 34.4792 11.4939 35.3542 13.5298C36.2292 15.5656 36.6667 17.7408 36.6667 20.0555C36.6667 20.6666 36.6389 21.2638 36.5833 21.8471C36.5278 22.4305 36.4352 23.0184 36.3055 23.611H33.4167C33.5741 23.0246 33.6921 22.4382 33.7708 21.8518C33.8496 21.2654 33.8889 20.6684 33.8889 20.061C33.8889 19.4536 33.8501 18.8462 33.7724 18.2388C33.6947 17.6314 33.5781 17.024 33.4228 16.4166H27.0833C27.1481 17.0277 27.206 17.6342 27.257 18.236C27.3079 18.8379 27.3333 19.4397 27.3333 20.0416C27.3333 20.6434 27.3148 21.2407 27.2778 21.8333C27.2407 22.4258 27.1852 23.0184 27.1111 23.611H24.3056C24.3889 23.0184 24.4514 22.4258 24.4931 21.8333C24.5348 21.2407 24.5556 20.6481 24.5556 20.0555C24.5556 19.449 24.5348 18.8425 24.4931 18.236C24.4514 17.6295 24.3889 17.0231 24.3056 16.4166H15.734C15.6428 17.0277 15.5764 17.6342 15.5347 18.236C15.493 18.8379 15.4722 19.4397 15.4722 20.0416C15.4722 20.6434 15.493 21.2407 15.5347 21.8333C15.5764 22.4258 15.6389 23.0184 15.7222 23.611H23.0556V26.3888H16.2778C16.6481 27.7684 17.1065 29.1134 17.6528 30.4235C18.1991 31.7337 18.9815 32.8796 20 33.861C20.6111 33.861 21.213 33.8263 21.8055 33.7569C22.3982 33.6874 23 33.5972 23.6111 33.486V36.2916C23 36.4027 22.3982 36.493 21.8055 36.5624C21.213 36.6319 20.6111 36.6666 20 36.6666ZM6.57725 23.611H12.9167C12.8426 23.0184 12.787 22.4258 12.75 21.8333C12.713 21.2407 12.6945 20.6481 12.6945 20.0555C12.6945 19.449 12.7107 18.8425 12.743 18.236C12.7755 17.6295 12.8241 17.0231 12.8889 16.4166H6.57534C6.42059 17.024 6.30453 17.6314 6.22717 18.2388C6.14978 18.8462 6.11109 19.4536 6.11109 20.061C6.11109 20.6684 6.14993 21.2654 6.22763 21.8518C6.30532 22.4382 6.42186 23.0246 6.57725 23.611ZM7.61109 13.6388H13.4053C13.6999 12.4073 14.0718 11.2059 14.5208 10.0346C14.9699 8.86332 15.5278 7.73138 16.1945 6.63879C14.3704 7.24991 12.713 8.14574 11.2222 9.32629C9.73146 10.5069 8.52775 11.9444 7.61109 13.6388ZM16.1667 33.3333C15.5185 32.2592 14.9699 31.1411 14.5208 29.9791C14.0718 28.8171 13.713 27.6203 13.4445 26.3888H7.61109C8.49072 28.1018 9.67128 29.5624 11.1528 30.7708C12.6343 31.9791 14.3056 32.8333 16.1667 33.3333ZM16.2778 13.6388H23.75C23.3982 12.2407 22.9213 10.8958 22.3195 9.60409C21.7176 8.31242 20.9444 7.13881 20 6.08325C19.0556 7.15731 18.2824 8.33554 17.6805 9.61796C17.0787 10.9004 16.6111 12.2407 16.2778 13.6388ZM26.6205 13.6388H32.3889C31.4723 11.9444 30.2732 10.5022 28.7917 9.31242C27.3102 8.12259 25.6574 7.24063 23.8333 6.66654C24.5 7.74063 25.0579 8.86332 25.507 10.0346C25.956 11.2059 26.3272 12.4073 26.6205 13.6388Z" fill="#444444"/>
</g>
</svg>
