<svg width="24" height="24" viewBox="0 0 24 24" fill="none" xmlns="http://www.w3.org/2000/svg">
<mask id="mask0_652_564" style="mask-type:alpha" maskUnits="userSpaceOnUse" x="0" y="0" width="24" height="24">
<rect width="24" height="24" fill="#D9D9D9"/>
</mask>
<g mask="url(#mask0_652_564)">
<path d="M4 20V12H2V10H6C5.45 10 4.97917 9.80417 4.5875 9.4125C4.19583 9.02083 4 8.55 4 8V4H10V8C10 8.55 9.80417 9.02083 9.4125 9.4125C9.02083 9.80417 8.55 10 8 10H16V7C16 6.71667 15.9042 6.47917 15.7125 6.2875C15.5208 6.09583 15.2833 6 15 6C14.7167 6 14.4792 6.09583 14.2875 6.2875C14.0958 6.47917 14 6.71667 14 7H12C12 6.16667 12.2917 5.45833 12.875 4.875C13.4583 4.29167 14.1667 4 15 4C15.8333 4 16.5417 4.29167 17.125 4.875C17.7083 5.45833 18 6.16667 18 7V10H22V12H20V20H4ZM6 8H8V6H6V8ZM6 18H11V12H6V18ZM13 18H18V12H13V18Z" fill="#444444"/>
</g>
</svg>
