<svg width="40" height="40" viewBox="0 0 40 40" fill="none" xmlns="http://www.w3.org/2000/svg">
<mask id="mask0_469_3228" style="mask-type:alpha" maskUnits="userSpaceOnUse" x="0" y="0" width="40" height="40">
<rect width="40" height="40" fill="#D9D9D9"/>
</mask>
<g mask="url(#mask0_469_3228)">
<path d="M6.08334 33.3333C5.31481 33.3333 4.66434 33.0613 4.13192 32.5173C3.59953 31.9733 3.33334 31.3194 3.33334 30.5555V6.111C3.33334 5.34711 3.59953 4.69318 4.13192 4.14921C4.66436 3.60524 5.31484 3.33325 6.08334 3.33325H22.2223C22.9861 3.33325 23.6401 3.60524 24.184 4.14921C24.728 4.69318 25 5.34711 25 6.111V13.986C24.5093 14.0509 24.0332 14.1409 23.5718 14.2562C23.1104 14.3714 22.6606 14.5129 22.2223 14.6805V6.111H6.08334V30.5555H13.8889V33.3333H6.08334ZM13.8889 28.3194V26.6666C13.8889 26.4693 13.8959 26.2764 13.9098 26.088C13.9236 25.8997 13.9398 25.7083 13.9583 25.5138C13.1713 25.4675 12.4954 25.1527 11.9305 24.5694C11.3657 23.986 11.0833 23.2962 11.0833 22.4999C11.0833 21.6511 11.3804 20.9297 11.9745 20.3355C12.5687 19.7414 13.2901 19.4443 14.1389 19.4443C14.4444 19.4443 14.7315 19.4906 15 19.5833C15.2685 19.6758 15.5278 19.8055 15.7778 19.9721C16.0185 19.5647 16.2801 19.1782 16.5625 18.8124C16.8449 18.4467 17.1528 18.0925 17.4861 17.7499C17.0139 17.4073 16.4977 17.1411 15.9375 16.9513C15.3773 16.7615 14.7778 16.6666 14.1389 16.6666C12.5278 16.6666 11.1528 17.236 10.0139 18.3749C8.87499 19.5138 8.30554 20.8888 8.30554 22.4999C8.30554 24.0686 8.84953 25.4122 9.9375 26.5306C11.0255 27.649 12.3426 28.2453 13.8889 28.3194ZM14.1667 14.1666C14.8611 14.1666 15.4514 13.9235 15.9375 13.4374C16.4236 12.9513 16.6667 12.361 16.6667 11.6666C16.6667 10.9721 16.4236 10.3819 15.9375 9.89575C15.4514 9.40964 14.8611 9.16659 14.1667 9.16659C13.4722 9.16659 12.8819 9.40964 12.3958 9.89575C11.9097 10.3819 11.6667 10.9721 11.6667 11.6666C11.6667 12.361 11.9097 12.9513 12.3958 13.4374C12.8819 13.9235 13.4722 14.1666 14.1667 14.1666ZM22.7778 36.6666H19.7198C18.8788 36.6666 18.1597 36.3674 17.5625 35.769C16.9653 35.1706 16.6667 34.4513 16.6667 33.611V26.6666C16.6667 23.8888 17.6389 21.5277 19.5833 19.5833C21.5278 17.6388 23.8889 16.6666 26.6667 16.6666C29.4445 16.6666 31.8056 17.6388 33.75 19.5833C35.6945 21.5277 36.6667 23.8888 36.6667 26.6666V33.611C36.6667 34.4513 36.3675 35.1706 35.7691 35.769C35.1707 36.3674 34.4514 36.6666 33.6111 36.6666H30.5556V28.8888H34.7223V26.6666C34.7223 24.4289 33.9397 22.5269 32.3746 20.9605C30.8095 19.3942 28.909 18.611 26.6732 18.611C24.4374 18.611 22.5347 19.3942 20.9653 20.9605C19.3958 22.5269 18.6111 24.4289 18.6111 26.6666V28.8888H22.7778V36.6666Z" fill="#444444"/>
</g>
</svg>
