<svg width="24" height="24" viewBox="0 0 24 24" fill="none" xmlns="http://www.w3.org/2000/svg">
<mask id="mask0_652_588" style="mask-type:alpha" maskUnits="userSpaceOnUse" x="0" y="0" width="24" height="24">
<rect width="24" height="24" fill="#D9D9D9"/>
</mask>
<g mask="url(#mask0_652_588)">
<path d="M4.125 12L1.125 6.8L7.725 3H9C9.26667 3.8 9.58333 4.5 9.95 5.1C10.3167 5.7 11 6 12 6C13 6 13.6833 5.7 14.05 5.1C14.4167 4.5 14.7333 3.8 15 3H16.275L22.85 6.825L19.875 12L18 10.975V15.775L16.425 17.15C16.375 17.1833 16.3083 17.225 16.225 17.275C16.1417 17.325 16.0667 17.3667 16 17.4V7.575L19.125 9.3L20.125 7.55L16.3 5.325C15.9 6.14167 15.3125 6.79167 14.5375 7.275C13.7625 7.75833 12.9167 8 12 8C11.0833 8 10.2375 7.75833 9.4625 7.275C8.6875 6.79167 8.1 6.14167 7.7 5.325L3.85 7.55L4.875 9.3L8 7.575V13.5C7.65 13.5333 7.30833 13.5875 6.975 13.6625C6.64167 13.7375 6.31667 13.8417 6 13.975V10.975L4.125 12ZM4.65 19.375L3.35 17.85L5.525 16C5.90833 15.6667 6.34583 15.4125 6.8375 15.2375C7.32917 15.0625 7.84167 14.975 8.375 14.975C8.90833 14.975 9.41667 15.0625 9.9 15.2375C10.3833 15.4125 10.8167 15.6667 11.2 16L14.1 18.475C14.3 18.6417 14.5375 18.7708 14.8125 18.8625C15.0875 18.9542 15.3667 19 15.65 19C15.95 19 16.2292 18.9583 16.4875 18.875C16.7458 18.7917 16.975 18.6583 17.175 18.475L19.35 16.6L20.65 18.15L18.475 20C18.0917 20.3333 17.6583 20.5833 17.175 20.75C16.6917 20.9167 16.1833 21 15.65 21C15.1167 21 14.6042 20.9167 14.1125 20.75C13.6208 20.5833 13.1833 20.3333 12.8 20L9.9 17.525C9.7 17.3583 9.47083 17.2292 9.2125 17.1375C8.95417 17.0458 8.675 17 8.375 17C8.09167 17 7.8125 17.0458 7.5375 17.1375C7.2625 17.2292 7.025 17.3583 6.825 17.525L4.65 19.375Z" fill="#444444"/>
</g>
</svg>
