<svg width="40" height="40" viewBox="0 0 40 40" fill="none" xmlns="http://www.w3.org/2000/svg">
<mask id="mask0_469_3246" style="mask-type:alpha" maskUnits="userSpaceOnUse" x="0" y="0" width="40" height="40">
<rect width="40" height="40" fill="#D9D9D9"/>
</mask>
<g mask="url(#mask0_469_3246)">
<path d="M9.44441 36.6666C8.69441 36.6666 8.04396 36.3911 7.49304 35.8402C6.94212 35.2893 6.66666 34.6388 6.66666 33.8888V6.111C6.66666 5.361 6.94212 4.71054 7.49304 4.15963C8.04396 3.60871 8.69441 3.33325 9.44441 3.33325H30.5556C31.3056 3.33325 31.956 3.60871 32.507 4.15963C33.0579 4.71054 33.3333 5.361 33.3333 6.111V33.8888C33.3333 34.6388 33.0579 35.2893 32.507 35.8402C31.956 36.3911 31.3056 36.6666 30.5556 36.6666H9.44441ZM9.44441 33.8888H30.5556V6.111H27.7778V17.3888L23.6945 14.9999L19.6112 17.3888V6.111H9.44441V33.8888Z" fill="#444444"/>
</g>
</svg>
