<svg width="20" height="20" viewBox="0 0 20 20" fill="none" xmlns="http://www.w3.org/2000/svg">
<mask id="mask0_714_280" style="mask-type:alpha" maskUnits="userSpaceOnUse" x="0" y="0" width="20" height="20">
<rect width="20" height="20" fill="#D9D9D9"/>
</mask>
<g mask="url(#mask0_714_280)">
<path d="M3.5 14.5V8.5V8.70833V5.5V14.5ZM15.0417 16.75L12.2966 14.0049C12.1266 13.835 12.0069 13.6526 11.9375 13.4578C11.8681 13.263 11.8333 13.0682 11.8333 12.8734C11.8333 12.4578 11.9792 12.0833 12.2708 11.75C12.5625 11.4167 12.9479 11.25 13.4271 11.25C13.7998 11.25 14.0926 11.3368 14.3056 11.5104C14.5185 11.684 14.7639 11.9097 15.0417 12.1875C15.3056 11.9236 15.5417 11.7014 15.75 11.5208C15.9583 11.3403 16.2547 11.25 16.6392 11.25C17.1297 11.25 17.5208 11.4162 17.8125 11.7487C18.1042 12.0812 18.25 12.4561 18.25 12.8733C18.25 13.0689 18.2118 13.2659 18.1354 13.4643C18.059 13.6627 17.9444 13.8413 17.7917 14L15.0417 16.75ZM3.5 7H16.5V5.5H3.5V7ZM9.85417 16H3.5C3.09722 16 2.74653 15.8507 2.44792 15.5521C2.14931 15.2535 2 14.9028 2 14.5V5.5C2 5.09722 2.14931 4.74653 2.44792 4.44792C2.74653 4.14931 3.09722 4 3.5 4H16.5C16.9125 4 17.2656 4.14931 17.5594 4.44792C17.8531 4.74653 18 5.09706 18 5.4995V9.39583C17.5556 9.11806 17.0809 8.89931 16.576 8.73958C16.0711 8.57986 15.5388 8.5 14.9792 8.5C14.2476 8.5 13.5578 8.63194 12.9097 8.89583C12.2616 9.15972 11.6944 9.52778 11.2083 10H3.5V14.5H9.5C9.52778 14.763 9.56944 15.0197 9.625 15.2701C9.68056 15.5206 9.75694 15.7639 9.85417 16Z" fill="#569A09"/>
</g>
</svg>
