<svg width="24" height="24" viewBox="0 0 24 24" fill="none" xmlns="http://www.w3.org/2000/svg">
<mask id="mask0_1610_273" style="mask-type:alpha" maskUnits="userSpaceOnUse" x="0" y="0" width="24" height="24">
<rect width="24" height="24" fill="#D9D9D9"/>
</mask>
<g mask="url(#mask0_1610_273)">
<path d="M17.3 20.25L20.85 16.7L20.1 15.95L17.3 18.75L15.9 17.35L15.15 18.1L17.3 20.25ZM9 19V9H8V19H9ZM11.7 21H8C7.45 21 6.97917 20.8042 6.5875 20.4125C6.19583 20.0208 6 19.55 6 19V9C6 8.45 6.19583 7.97917 6.5875 7.5875C6.97917 7.19583 7.45 7 8 7H14V4C13.45 4 12.9792 3.80417 12.5875 3.4125C12.1958 3.02083 12 2.55 12 2H16V11.3C15.6 11.4333 15.2542 11.5667 14.9625 11.7C14.6708 11.8333 14.35 12.0167 14 12.25V9H11V19H11.1C11.15 19.4 11.225 19.75 11.325 20.05C11.425 20.35 11.55 20.6667 11.7 21ZM18 13C19.3833 13 20.5625 13.4875 21.5375 14.4625C22.5125 15.4375 23 16.6167 23 18C23 19.3833 22.5125 20.5625 21.5375 21.5375C20.5625 22.5125 19.3833 23 18 23C16.6167 23 15.4375 22.5125 14.4625 21.5375C13.4875 20.5625 13 19.3833 13 18C13 16.6167 13.4875 15.4375 14.4625 14.4625C15.4375 13.4875 16.6167 13 18 13Z" fill="#444444"/>
</g>
</svg>
