<svg width="24" height="24" viewBox="0 0 24 24" fill="none" xmlns="http://www.w3.org/2000/svg">
<mask id="mask0_1235_279" style="mask-type:alpha" maskUnits="userSpaceOnUse" x="0" y="0" width="24" height="24">
<rect width="24" height="24" fill="#D9D9D9"/>
</mask>
<g mask="url(#mask0_1235_279)">
<path d="M4 21L2 19H22L20 21H4ZM3 18C3.1 17.7 3.23333 17.4167 3.4 17.15C3.56667 16.8833 3.76667 16.6333 4 16.4V9H3V7.5H4V6.75H3V5.25H4V4.5H3V3H10C10.55 3 11.0208 3.19583 11.4125 3.5875C11.8042 3.97917 12 4.45 12 5V5.25H21V6.75H12V7C12 7.55 11.8042 8.02083 11.4125 8.4125C11.0208 8.80417 10.55 9 10 9H8V15.1C8.23333 15.1333 8.46667 15.1833 8.7 15.25C8.93333 15.3167 9.15 15.4167 9.35 15.55C9.78333 14.4667 10.475 13.6042 11.425 12.9625C12.375 12.3208 13.425 12 14.575 12C16.075 12 17.3542 12.5125 18.4125 13.5375C19.4708 14.5625 20 15.8167 20 17.3V18H3ZM11.35 16H17.65C17.3667 15.4 16.95 14.9167 16.4 14.55C15.85 14.1833 15.2417 14 14.575 14C13.875 14 13.2333 14.175 12.65 14.525C12.0667 14.875 11.6333 15.3667 11.35 16ZM8 5.25H10V4.5H8V5.25ZM8 7.5H10V6.75H8V7.5ZM5.5 5.25H6.5V4.5H5.5V5.25ZM5.5 7.5H6.5V6.75H5.5V7.5ZM5.5 15.35C5.66667 15.2667 5.82917 15.2042 5.9875 15.1625C6.14583 15.1208 6.31667 15.0833 6.5 15.05V9H5.5V15.35Z" fill="#444444"/>
</g>
</svg>
