<svg width="20" height="20" viewBox="0 0 20 20" fill="none" xmlns="http://www.w3.org/2000/svg">
<mask id="mask0_718_354" style="mask-type:alpha" maskUnits="userSpaceOnUse" x="0" y="0" width="20" height="20">
<rect width="20" height="20" fill="#D9D9D9"/>
</mask>
<g mask="url(#mask0_718_354)">
<path d="M17.6251 15.4998L16.5001 14.3748V9.99984H12.1251L9.12508 6.99984H16.5001V5.49984H7.62508L6.12508 3.99984H16.5001C16.9126 3.99984 17.2657 4.14671 17.5595 4.44046C17.8532 4.73421 18.0001 5.08734 18.0001 5.49984V14.4998C18.0001 14.6943 17.9723 14.8746 17.9167 15.0407C17.8612 15.2069 17.764 15.3599 17.6251 15.4998ZM7.87508 9.99984H3.50008V14.4998H12.3751L7.87508 9.99984ZM16.7292 18.8332L13.8751 15.9998H3.50008C3.08758 15.9998 2.73446 15.8529 2.44071 15.559C2.14696 15.265 2.00008 14.9117 2.00008 14.499V5.49394C2.00008 5.08121 2.14491 4.729 2.43458 4.43734C2.72425 4.14567 3.07247 3.99984 3.47925 3.99984H4.00008L5.62508 5.62484H3.50008V6.99984H4.87508L1.16675 3.27067L2.22925 2.229L17.7709 17.7707L16.7292 18.8332Z" fill="#569A09"/>
</g>
</svg>
