<svg width="24" height="24" viewBox="0 0 24 24" fill="none" xmlns="http://www.w3.org/2000/svg">
<mask id="mask0_1450_289" style="mask-type:alpha" maskUnits="userSpaceOnUse" x="0" y="0" width="24" height="24">
<rect width="24" height="24" fill="#D9D9D9"/>
</mask>
<g mask="url(#mask0_1450_289)">
<path d="M7 18H8V16.5H16V18H17V14C17 13.45 16.8042 12.9792 16.4125 12.5875C16.0208 12.1958 15.55 12 15 12H11.5V15.5H8V11H7V18ZM9.75 15C10.1 15 10.3958 14.8792 10.6375 14.6375C10.8792 14.3958 11 14.1 11 13.75C11 13.4 10.8792 13.1042 10.6375 12.8625C10.3958 12.6208 10.1 12.5 9.75 12.5C9.4 12.5 9.10417 12.6208 8.8625 12.8625C8.62083 13.1042 8.5 13.4 8.5 13.75C8.5 14.1 8.62083 14.3958 8.8625 14.6375C9.10417 14.8792 9.4 15 9.75 15ZM4 21V9L12 3L20 9V21H4ZM6 19H18V10L12 5.5L6 10V19Z" fill="#444444"/>
</g>
</svg>
