<svg width="40" height="40" viewBox="0 0 40 40" fill="none" xmlns="http://www.w3.org/2000/svg">
<mask id="mask0_469_3210" style="mask-type:alpha" maskUnits="userSpaceOnUse" x="0" y="0" width="40" height="40">
<rect width="40" height="40" fill="#D9D9D9"/>
</mask>
<g mask="url(#mask0_469_3210)">
<path d="M11.6945 14.0279L14.8889 10.8334L11.6945 7.63896L8.5 10.8334L11.6945 14.0279ZM6.11109 23.3334C5.36109 23.3334 4.71063 23.058 4.15971 22.507C3.60879 21.9561 3.33334 21.3057 3.33334 20.5557V4.4445C3.33334 3.6945 3.60879 3.04404 4.15971 2.49312C4.71063 1.94221 5.36109 1.66675 6.11109 1.66675H33.8889C34.6389 1.66675 35.2894 1.94221 35.8403 2.49312C36.3912 3.04404 36.6667 3.6945 36.6667 4.4445V20.5557C36.6667 21.3057 36.3912 21.9561 35.8403 22.507C35.2894 23.058 34.6389 23.3334 33.8889 23.3334H27.9583C28.1065 22.889 28.2083 22.4353 28.2639 21.9723C28.3194 21.5094 28.338 21.0371 28.3195 20.5557H33.8889V4.4445H6.11109V20.5557H11.6805C11.662 21.0371 11.6806 21.5094 11.7361 21.9723C11.7917 22.4353 11.8935 22.889 12.0417 23.3334H6.11109ZM27.5016 11.5279C28.158 11.5279 28.7153 11.2982 29.1736 10.8387C29.632 10.3793 29.8611 9.82143 29.8611 9.16512C29.8611 8.50879 29.6314 7.95146 29.172 7.49312C28.7125 7.03479 28.1547 6.80562 27.4984 6.80562C26.842 6.80562 26.2847 7.03534 25.8264 7.49479C25.368 7.95421 25.1389 8.51207 25.1389 9.16837C25.1389 9.82471 25.3686 10.382 25.828 10.8404C26.2875 11.2987 26.8453 11.5279 27.5016 11.5279ZM8.33334 38.3334V34.8334C8.33334 33.8612 8.60417 32.9584 9.14584 32.1251C9.6875 31.2917 10.4028 30.6667 11.2917 30.2501C12.6528 29.6112 14.0694 29.132 15.5417 28.8126C17.0139 28.4931 18.5 28.3334 20 28.3334C21.5 28.3334 22.9861 28.4931 24.4583 28.8126C25.9306 29.132 27.3472 29.6112 28.7083 30.2501C29.5972 30.6667 30.3125 31.2917 30.8542 32.1251C31.3958 32.9584 31.6667 33.8612 31.6667 34.8334V38.3334H8.33334ZM11.1111 35.5557H28.8889V34.8334C28.8889 34.3959 28.7639 33.9949 28.5139 33.6303C28.2639 33.2657 27.9306 32.9862 27.5139 32.7917C26.3287 32.2454 25.1065 31.8288 23.8472 31.5417C22.588 31.2547 21.3056 31.1112 20 31.1112C18.6944 31.1112 17.412 31.2547 16.1528 31.5417C14.8935 31.8288 13.6713 32.2454 12.4861 32.7917C12.0694 32.9862 11.7361 33.2657 11.4861 33.6303C11.2361 33.9949 11.1111 34.3959 11.1111 34.8334V35.5557ZM20 26.6667C18.3889 26.6667 17.0139 26.0973 15.875 24.9584C14.7361 23.8195 14.1667 22.4445 14.1667 20.8334C14.1667 19.2223 14.7361 17.8473 15.875 16.7084C17.0139 15.5695 18.3889 15.0001 20 15.0001C21.6111 15.0001 22.9861 15.5695 24.125 16.7084C25.2639 17.8473 25.8333 19.2223 25.8333 20.8334C25.8333 22.4445 25.2639 23.8195 24.125 24.9584C22.9861 26.0973 21.6111 26.6667 20 26.6667ZM19.9935 23.889C20.8404 23.889 21.5625 23.5926 22.1598 22.9997C22.757 22.4068 23.0556 21.6869 23.0556 20.84C23.0556 19.993 22.7591 19.2709 22.1663 18.6737C21.5734 18.0764 20.8535 17.7778 20.0065 17.7778C19.1596 17.7778 18.4375 18.0743 17.8403 18.6672C17.243 19.26 16.9444 19.9799 16.9444 20.8269C16.9444 21.6738 17.2409 22.3959 17.8338 22.9932C18.4266 23.5904 19.1465 23.889 19.9935 23.889Z" fill="#444444"/>
</g>
</svg>
