<svg width="24" height="24" viewBox="0 0 24 24" fill="none" xmlns="http://www.w3.org/2000/svg">
<mask id="mask0_1293_291" style="mask-type:alpha" maskUnits="userSpaceOnUse" x="0" y="0" width="24" height="24">
<rect width="24" height="24" fill="#D9D9D9"/>
</mask>
<g mask="url(#mask0_1293_291)">
<path d="M10 22V20H23V22H10ZM11 19C11 17.65 11.425 16.4708 12.275 15.4625C13.125 14.4542 14.2 13.8333 15.5 13.6V12.975C15.5 12.6917 15.5958 12.4542 15.7875 12.2625C15.9792 12.0708 16.2167 11.975 16.5 11.975C16.7833 11.975 17.0208 12.0708 17.2125 12.2625C17.4042 12.4542 17.5 12.6917 17.5 12.975V13.6C18.7833 13.8333 19.8542 14.4542 20.7125 15.4625C21.5708 16.4708 22 17.65 22 19H11ZM13.625 16.975H19.325C19.0083 16.525 18.6042 16.1625 18.1125 15.8875C17.6208 15.6125 17.0833 15.475 16.5 15.475C15.9 15.475 15.35 15.6125 14.85 15.8875C14.35 16.1625 13.9417 16.525 13.625 16.975ZM1 13V2H7V3.45L14 1.5L22 4V5C22 5.83333 21.7083 6.54167 21.125 7.125C20.5417 7.70833 19.8333 8 19 8H17V8.6C17 9.01667 16.8792 9.39583 16.6375 9.7375C16.3958 10.0792 16.0833 10.325 15.7 10.475L8.95 13H1ZM3 11H5V4H3V11ZM7 11H8.6L14.4 8.875C14.5833 8.80833 14.7292 8.69583 14.8375 8.5375C14.9458 8.37917 15 8.2 15 8H13.225L10.3 8.95L9.7 7.05L12.825 6H19C19.15 6 19.3375 5.94583 19.5625 5.8375C19.7875 5.72917 19.9 5.6 19.9 5.45L13.95 3.6L7 5.5V11Z" fill="#444444"/>
</g>
</svg>
