<svg width="40" height="40" viewBox="0 0 40 40" fill="none" xmlns="http://www.w3.org/2000/svg">
<mask id="mask0_470_323" style="mask-type:alpha" maskUnits="userSpaceOnUse" x="0" y="0" width="40" height="40">
<rect width="40" height="40" fill="#D9D9D9"/>
</mask>
<g mask="url(#mask0_470_323)">
<path d="M3.33334 35.0001V7.36117L11.5278 1.66675L19.7222 7.36117V11.8056H36.6667V35.0001H3.33334ZM6.11109 32.2223H10.1389V28.1945H6.11109V32.2223ZM6.11109 25.4167H10.1389V21.389H6.11109V25.4167ZM6.11109 18.6112H10.1389V14.5834H6.11109V18.6112ZM6.11109 11.8056H10.1389V7.77783H6.11109V11.8056ZM12.9167 11.8056H16.9445V7.77783H12.9167V11.8056ZM12.9167 32.2223H33.8889V14.5834H12.9167V32.2223ZM23.0555 21.389V18.6112H29.8611V21.389H23.0555ZM23.0555 28.1945V25.4167H29.8611V28.1945H23.0555ZM16.9445 21.389V18.6112H19.7222V21.389H16.9445ZM16.9445 28.1945V25.4167H19.7222V28.1945H16.9445Z" fill="#444444"/>
</g>
<mask id="mask1_470_323" style="mask-type:alpha" maskUnits="userSpaceOnUse" x="20" y="0" width="14" height="14">
<rect x="20" width="14" height="14" fill="#D9D9D9"/>
</mask>
<g mask="url(#mask1_470_323)">
<path d="M26.5139 12.8334V5.25008H21.1667L27 1.16675L32.8333 5.25008H27.4861V12.8334H26.5139ZM21.75 12.8334V9.76119L21.2833 7.20425L22.2264 7.03898L22.6833 9.43064H25.0555V12.8334H24.0833V10.4029H22.7222V12.8334H21.75ZM28.9445 12.8334V9.43064H31.3167L31.7736 7.03898L32.7167 7.20425L32.25 9.76119V12.8334H31.2778V10.4029H29.9167V12.8334H28.9445ZM24.2486 4.27787H29.7514L27 2.35285L24.2486 4.27787Z" fill="#444444"/>
</g>
</svg>
