<svg width="24" height="24" viewBox="0 0 24 24" fill="none" xmlns="http://www.w3.org/2000/svg">
<mask id="mask0_447_3011" style="mask-type:alpha" maskUnits="userSpaceOnUse" x="13" y="0" width="8" height="8">
<rect x="13" width="8" height="8" fill="#D9D9D9"/>
</mask>
<g mask="url(#mask0_447_3011)">
<path d="M16.6669 7.33293V2.99959H13.6669L17.0002 0.66626L20.3335 2.99959H17.3335V7.33293H16.6669ZM14.0002 7.33293V5.58293L13.7335 4.11626L14.3835 3.99959L14.6335 5.33293H16.0002V7.33293H15.3335V5.99959H14.6669V7.33293H14.0002ZM18.0002 7.33293V5.33293H19.3669L19.6169 3.99959L20.2669 4.11626L20.0002 5.58293V7.33293H19.3335V5.99959H18.6669V7.33293H18.0002ZM15.7835 2.33293H18.2169L17.0002 1.48293L15.7835 2.33293Z" fill="#444444"/>
</g>
<mask id="mask1_447_3011" style="mask-type:alpha" maskUnits="userSpaceOnUse" x="0" y="0" width="24" height="24">
<rect width="24" height="24" fill="#D9D9D9"/>
</mask>
<g mask="url(#mask1_447_3011)">
<path d="M2 21V4.75L7 1L12 4.75V7H22V21H2ZM4 19H6V17H4V19ZM4 15H6V13H4V15ZM4 11H6V9H4V11ZM4 7H6V5H4V7ZM8 7H10V5H8V7ZM8 19H20V9H8V19ZM14 13V11H18V13H14ZM14 17V15H18V17H14ZM10 13V11H12V13H10ZM10 17V15H12V17H10Z" fill="#444444"/>
</g>
</svg>
