<svg width="24" height="24" viewBox="0 0 24 24" fill="none" xmlns="http://www.w3.org/2000/svg">
<mask id="mask0_1265_288" style="mask-type:alpha" maskUnits="userSpaceOnUse" x="0" y="0" width="24" height="24">
<rect width="24" height="24" fill="#D9D9D9"/>
</mask>
<g mask="url(#mask0_1265_288)">
<path d="M3 5V3H6V5H3ZM6.125 10.325L4.7 8.925L6.825 6.8L8.25 8.2L6.125 10.325ZM12 8C10.6167 8 9.4375 7.5125 8.4625 6.5375C7.4875 5.5625 7 4.38333 7 3H9C9 3.83333 9.29167 4.54167 9.875 5.125C10.4583 5.70833 11.1667 6 12 6C12.8333 6 13.5417 5.70833 14.125 5.125C14.7083 4.54167 15 3.83333 15 3H17C17 4.38333 16.5125 5.5625 15.5375 6.5375C14.5625 7.5125 13.3833 8 12 8ZM11 12V9H13V12H11ZM17.875 10.325L15.775 8.2L17.175 6.8L19.3 8.9L17.875 10.325ZM18 5V3H21V5H18ZM2 21V19C2.63333 19 3.10417 18.8333 3.4125 18.5C3.72083 18.1667 4.36667 18 5.35 18C6.33333 18 6.97917 18.1667 7.2875 18.5C7.59583 18.8333 8.05 19 8.65 19C9.28333 19 9.75417 18.8333 10.0625 18.5C10.3708 18.1667 11.0167 18 12 18C12.95 18 13.5958 18.1667 13.9375 18.5C14.2792 18.8333 14.75 19 15.35 19C15.9833 19 16.4458 18.8333 16.7375 18.5C17.0292 18.1667 17.6667 18 18.65 18C19.6333 18 20.2792 18.1667 20.5875 18.5C20.8958 18.8333 21.3667 19 22 19V21C21.05 21 20.4042 20.8333 20.0625 20.5C19.7208 20.1667 19.25 20 18.65 20C18.05 20 17.5958 20.1667 17.2875 20.5C16.9792 20.8333 16.3333 21 15.35 21C14.4 21 13.7542 20.8333 13.4125 20.5C13.0708 20.1667 12.6 20 12 20C11.3667 20 10.8958 20.1667 10.5875 20.5C10.2792 20.8333 9.63333 21 8.65 21C7.66667 21 7.02917 20.8333 6.7375 20.5C6.44583 20.1667 5.98333 20 5.35 20C4.71667 20 4.24583 20.1667 3.9375 20.5C3.62917 20.8333 2.98333 21 2 21ZM2 17V15C2.63333 15 3.10417 14.8333 3.4125 14.5C3.72083 14.1667 4.36667 14 5.35 14C6.3 14 6.9375 14.1667 7.2625 14.5C7.5875 14.8333 8.05 15 8.65 15C9.28333 15 9.75417 14.8333 10.0625 14.5C10.3708 14.1667 11.0167 14 12 14C12.95 14 13.5917 14.1667 13.925 14.5C14.2583 14.8333 14.7167 15 15.3 15C15.9333 15 16.4042 14.8333 16.7125 14.5C17.0208 14.1667 17.6667 14 18.65 14C19.6 14 20.2458 14.1667 20.5875 14.5C20.9292 14.8333 21.4 15 22 15V17C21.0167 17 20.3625 16.8333 20.0375 16.5C19.7125 16.1667 19.25 16 18.65 16C18.05 16 17.5958 16.1667 17.2875 16.5C16.9792 16.8333 16.3333 17 15.35 17C14.4 17 13.7542 16.8333 13.4125 16.5C13.0708 16.1667 12.6 16 12 16C11.3667 16 10.9042 16.1667 10.6125 16.5C10.3208 16.8333 9.68333 17 8.7 17C7.71667 17 7.0625 16.8333 6.7375 16.5C6.4125 16.1667 5.95 16 5.35 16C4.75 16 4.27917 16.1667 3.9375 16.5C3.59583 16.8333 2.95 17 2 17Z" fill="#444444"/>
</g>
</svg>
