<svg width="40" height="40" viewBox="0 0 40 40" fill="none" xmlns="http://www.w3.org/2000/svg">
<mask id="mask0_469_3276" style="mask-type:alpha" maskUnits="userSpaceOnUse" x="0" y="0" width="40" height="40">
<rect width="40" height="40" fill="#D9D9D9"/>
</mask>
<g mask="url(#mask0_469_3276)">
<path d="M24.5833 19.6667L31.25 15.8334L24.5833 12.0001L17.9167 15.8334L24.5833 19.6667ZM24.5833 24.7501L29.1667 22.0834V18.5834L24.5833 21.2501L20 18.5834V22.0834L24.5833 24.7501ZM33.9167 33.3334H25.0278C25.0278 32.8704 25.0116 32.4075 24.9792 31.9445C24.9467 31.4816 24.8981 31.0186 24.8333 30.5557H33.9167V9.4445H6.13887V11.7501C5.6759 11.6853 5.21294 11.6367 4.75 11.6042C4.28702 11.5718 3.82407 11.5556 3.36112 11.5556V9.4445C3.36112 8.68061 3.63311 8.02668 4.17708 7.48271C4.72105 6.93873 5.37498 6.66675 6.13887 6.66675H33.9167C34.6806 6.66675 35.3345 6.93873 35.8785 7.48271C36.4225 8.02668 36.6945 8.68061 36.6945 9.4445V30.5557C36.6945 31.3196 36.4225 31.9735 35.8785 32.5175C35.3345 33.0614 34.6806 33.3334 33.9167 33.3334ZM3.36112 33.3334V28.7779C4.59568 28.7779 5.64505 29.2208 6.50925 30.1066C7.37344 30.9924 7.80554 32.068 7.80554 33.3334H3.36112ZM11.6945 33.3334C11.6945 30.9971 10.8866 29.0056 9.27083 27.359C7.65508 25.7123 5.68518 24.889 3.36112 24.889V22.1112C6.45634 22.1112 9.082 23.2061 11.2381 25.3959C13.3942 27.5857 14.4722 30.2316 14.4722 33.3334H11.6945ZM18.3611 33.3334C18.3611 31.2501 17.9699 29.2894 17.1875 27.4515C16.4051 25.6135 15.3356 24.0117 13.9792 22.6459C12.6227 21.2802 11.0347 20.2015 9.21529 19.4098C7.39584 18.6181 5.44446 18.2223 3.36112 18.2223V15.4445C5.81482 15.4445 8.12037 15.9144 10.2778 16.8542C12.4352 17.7941 14.3194 19.0742 15.9305 20.6945C17.5417 22.3149 18.8125 24.213 19.743 26.389C20.6736 28.5649 21.1389 30.8797 21.1389 33.3334H18.3611Z" fill="#444444"/>
</g>
</svg>
