<svg width="40" height="40" viewBox="0 0 40 40" fill="none" xmlns="http://www.w3.org/2000/svg">
<mask id="mask0_469_3282" style="mask-type:alpha" maskUnits="userSpaceOnUse" x="0" y="0" width="40" height="40">
<rect width="40" height="40" fill="#D9D9D9"/>
</mask>
<g mask="url(#mask0_469_3282)">
<path d="M1.66666 33.3334V26.6667C1.66666 25.8149 1.96528 25.0927 2.5625 24.5001C3.15972 23.9075 3.87962 23.6112 4.72221 23.6112H10.4583C10.9583 23.6112 11.4352 23.7362 11.8889 23.9862C12.3426 24.2362 12.7222 24.5788 13.0278 25.014C13.8333 26.1528 14.8495 27.0371 16.0764 27.6667C17.3032 28.2964 18.6111 28.6112 20 28.6112C21.3981 28.6112 22.7106 28.2964 23.9375 27.6667C25.1644 27.0371 26.1852 26.1528 27 25.014C27.3241 24.5788 27.706 24.2362 28.1458 23.9862C28.5856 23.7362 29.0509 23.6112 29.5417 23.6112H35.2778C36.1296 23.6112 36.8518 23.9075 37.4445 24.5001C38.037 25.0927 38.3333 25.8149 38.3333 26.6667V33.3334H27.2222V28.764C26.2315 29.6065 25.1181 30.2547 23.882 30.7084C22.6458 31.1621 21.3519 31.389 20 31.389C18.6574 31.389 17.3704 31.1598 16.1389 30.7015C14.9074 30.2431 13.787 29.5927 12.7777 28.75V33.3334H1.66666ZM20 26.389C19 26.389 18.0417 26.1552 17.125 25.6876C16.2083 25.22 15.4583 24.5742 14.875 23.7501C14.4213 23.0927 13.8681 22.5672 13.2153 22.1737C12.5625 21.7802 11.8565 21.5371 11.0972 21.4445C11.838 20.5464 13.1111 19.8496 14.9167 19.3542C16.7222 18.8589 18.4167 18.6112 20 18.6112C21.5833 18.6112 23.2824 18.8589 25.0972 19.3542C26.912 19.8496 28.1898 20.5464 28.9305 21.4445C28.1805 21.5371 27.4768 21.7802 26.8194 22.1737C26.162 22.5672 25.6065 23.0927 25.1528 23.7501C24.5787 24.5834 23.8333 25.2316 22.9167 25.6945C22 26.1575 21.0278 26.389 20 26.389ZM6.66666 21.1112C5.37036 21.1112 4.25925 20.6482 3.33333 19.7223C2.40741 18.7964 1.94446 17.6853 1.94446 16.389C1.94446 15.0649 2.40741 13.9468 3.33333 13.0348C4.25925 12.1228 5.37036 11.6667 6.66666 11.6667C7.99075 11.6667 9.1088 12.1228 10.0208 13.0348C10.9329 13.9468 11.3889 15.0649 11.3889 16.389C11.3889 17.6853 10.9329 18.7964 10.0208 19.7223C9.1088 20.6482 7.99075 21.1112 6.66666 21.1112ZM33.3333 21.1112C32.037 21.1112 30.9259 20.6482 30 19.7223C29.0741 18.7964 28.6111 17.6853 28.6111 16.389C28.6111 15.0649 29.0741 13.9468 30 13.0348C30.9259 12.1228 32.037 11.6667 33.3333 11.6667C34.6574 11.6667 35.7755 12.1228 36.6875 13.0348C37.5995 13.9468 38.0555 15.0649 38.0555 16.389C38.0555 17.6853 37.5995 18.7964 36.6875 19.7223C35.7755 20.6482 34.6574 21.1112 33.3333 21.1112ZM20 16.1112C18.7037 16.1112 17.5926 15.6482 16.6667 14.7223C15.7407 13.7964 15.2778 12.6853 15.2778 11.389C15.2778 10.0649 15.7407 8.94685 16.6667 8.03479C17.5926 7.12276 18.7037 6.66675 20 6.66675C21.3241 6.66675 22.4421 7.12276 23.3542 8.03479C24.2662 8.94685 24.7222 10.0649 24.7222 11.389C24.7222 12.6853 24.2662 13.7964 23.3542 14.7223C22.4421 15.6482 21.3241 16.1112 20 16.1112Z" fill="#444444"/>
</g>
</svg>
