<svg width="40" height="40" viewBox="0 0 40 40" fill="none" xmlns="http://www.w3.org/2000/svg">
<mask id="mask0_469_3270" style="mask-type:alpha" maskUnits="userSpaceOnUse" x="0" y="0" width="40" height="40">
<rect width="40" height="40" fill="#D9D9D9"/>
</mask>
<g mask="url(#mask0_469_3270)">
<path d="M6.44446 11.3334C6.44446 10.0371 6.89815 8.93526 7.80554 8.02787C8.71296 7.12046 9.8148 6.66675 11.1111 6.66675H28.8889C30.1852 6.66675 31.287 7.12046 32.1945 8.02787C33.1018 8.93526 33.5555 10.0371 33.5555 11.3334V14.7501C34.9074 14.6575 36.0417 15.0139 36.9583 15.8195C37.875 16.6251 38.3333 17.713 38.3333 19.0834V28.6667C38.3333 29.9631 37.8796 31.0649 36.9722 31.9723C36.0648 32.8797 34.963 33.3334 33.6667 33.3334H6.33333C5.03703 33.3334 3.93518 32.8797 3.02779 31.9723C2.12037 31.0649 1.66666 29.9631 1.66666 28.6667V19.0834C1.66666 17.713 2.12962 16.6251 3.05554 15.8195C3.98148 15.0139 5.11112 14.6575 6.44446 14.7501V11.3334ZM9.22221 11.3334V16.0001C9.64812 16.4167 9.98608 16.8519 10.2361 17.3056C10.4861 17.7593 10.6111 18.3519 10.6111 19.0834V23.639H29.3889V19.0834C29.3889 18.3519 29.5139 17.7593 29.7639 17.3056C30.0139 16.8519 30.3519 16.4167 30.7778 16.0001V11.3334C30.7778 10.7871 30.5996 10.3357 30.2431 9.97925C29.8866 9.62275 29.4352 9.4445 28.8889 9.4445H11.1111C10.5648 9.4445 10.1134 9.62275 9.75691 9.97925C9.40044 10.3357 9.22221 10.7871 9.22221 11.3334ZM32.1667 26.4167H7.83333V19.0834C7.83333 18.8241 7.79629 18.5903 7.72221 18.382C7.64812 18.1737 7.53469 17.9931 7.38191 17.8403C7.22914 17.6876 7.04858 17.5741 6.84025 17.5C6.63191 17.426 6.40183 17.389 6.15 17.389C5.6148 17.389 5.19675 17.5394 4.89583 17.8403C4.59489 18.1412 4.44441 18.5556 4.44441 19.0834V28.6712C4.44441 29.2146 4.62266 29.6644 4.97916 30.0209C5.33564 30.3774 5.78703 30.5557 6.33333 30.5557H33.6667C34.213 30.5557 34.6644 30.3774 35.0208 30.0209C35.3773 29.6644 35.5556 29.2146 35.5556 28.6712V19.0834C35.5556 18.5556 35.4051 18.1412 35.1042 17.8403C34.8032 17.5394 34.3852 17.389 33.85 17.389C33.5982 17.389 33.3681 17.426 33.1597 17.5C32.9514 17.5741 32.7738 17.6876 32.627 17.8403C32.4803 17.9931 32.3668 18.1737 32.2868 18.382C32.2067 18.5903 32.1667 18.8241 32.1667 19.0834V26.4167Z" fill="#444444"/>
</g>
</svg>
