<svg width="40" height="40" viewBox="0 0 40 40" fill="none" xmlns="http://www.w3.org/2000/svg">
<mask id="mask0_471_336" style="mask-type:alpha" maskUnits="userSpaceOnUse" x="0" y="0" width="40" height="40">
<rect width="40" height="40" fill="#D9D9D9"/>
</mask>
<g mask="url(#mask0_471_336)">
<path d="M6.66666 35V32.2222H33.3333V35H6.66666ZM13.0833 28.8889C11.3056 28.8889 9.79166 28.2685 8.54166 27.0278C7.29166 25.7871 6.66666 24.2778 6.66666 22.5V5H33.8889C34.6528 5 35.3067 5.27199 35.8507 5.81596C36.3947 6.35993 36.6667 7.01386 36.6667 7.77775V13.8889C36.6667 14.6528 36.3947 15.3067 35.8507 15.8507C35.3067 16.3947 34.6528 16.6667 33.8889 16.6667H30.1111V22.5C30.1111 24.2778 29.4861 25.7871 28.2361 27.0278C26.9861 28.2685 25.4722 28.8889 23.6945 28.8889H13.0833ZM13.0833 26.1111H23.6938C24.6665 26.1111 25.5162 25.7477 26.2431 25.0209C26.9699 24.294 27.3333 23.4537 27.3333 22.5V7.77775H9.44441V22.5C9.44441 23.4537 9.81247 24.294 10.5486 25.0209C11.2847 25.7477 12.1296 26.1111 13.0833 26.1111ZM30.1111 13.8889H33.8889V7.77775H30.1111V13.8889ZM13.0833 26.1111H9.44441H27.3333H13.0833Z" fill="#444444"/>
</g>
</svg>
