<svg width="40" height="40" viewBox="0 0 40 40" fill="none" xmlns="http://www.w3.org/2000/svg">
<mask id="mask0_470_316" style="mask-type:alpha" maskUnits="userSpaceOnUse" x="0" y="0" width="40" height="40">
<rect width="40" height="40" fill="#D9D9D9"/>
</mask>
<g mask="url(#mask0_470_316)">
<path d="M7.77775 35C7.02775 35 6.37729 34.7245 5.82637 34.1736C5.27546 33.6227 5 32.9722 5 32.2222V7.77775C5 7.02775 5.27546 6.37729 5.82637 5.82638C6.37729 5.27546 7.02775 5 7.77775 5H32.2222C32.9722 5 33.6227 5.27546 34.1736 5.82638C34.7245 6.37729 35 7.02775 35 7.77775V32.2222C35 32.9722 34.7245 33.6227 34.1736 34.1736C33.6227 34.7245 32.9722 35 32.2222 35H7.77775ZM7.77775 19.7222V32.2222H32.2222V19.7222H28.0555V28.0555H11.9445V19.7222H7.77775ZM14.7222 25.2778H25.2778V19.7222H14.7222V25.2778ZM7.77775 16.9445H32.2222V7.77775H7.77775V16.9445ZM13.3285 13.0555C12.9336 13.0555 12.6042 12.922 12.3403 12.6548C12.0764 12.3877 11.9445 12.0567 11.9445 11.6618C11.9445 11.2669 12.078 10.9375 12.3452 10.6736C12.6123 10.4097 12.9433 10.2778 13.3382 10.2778C13.7331 10.2778 14.0625 10.4114 14.3264 10.6785C14.5903 10.9456 14.7222 11.2767 14.7222 11.6715C14.7222 12.0664 14.5886 12.3958 14.3215 12.6597C14.0544 12.9236 13.7233 13.0555 13.3285 13.0555ZM19.9951 13.0555C19.6002 13.0555 19.2708 12.922 19.007 12.6548C18.7431 12.3877 18.6111 12.0567 18.6111 11.6618C18.6111 11.2669 18.7447 10.9375 19.0118 10.6736C19.279 10.4097 19.61 10.2778 20.0049 10.2778C20.3998 10.2778 20.7292 10.4114 20.993 10.6785C21.2569 10.9456 21.3889 11.2767 21.3889 11.6715C21.3889 12.0664 21.2553 12.3958 20.9882 12.6597C20.721 12.9236 20.39 13.0555 19.9951 13.0555ZM26.6618 13.0555C26.2669 13.0555 25.9375 12.922 25.6736 12.6548C25.4097 12.3877 25.2778 12.0567 25.2778 11.6618C25.2778 11.2669 25.4114 10.9375 25.6785 10.6736C25.9456 10.4097 26.2767 10.2778 26.6715 10.2778C27.0664 10.2778 27.3958 10.4114 27.6597 10.6785C27.9236 10.9456 28.0555 11.2767 28.0555 11.6715C28.0555 12.0664 27.922 12.3958 27.6548 12.6597C27.3877 12.9236 27.0567 13.0555 26.6618 13.0555Z" fill="#444444"/>
</g>
</svg>
