<svg width="40" height="40" viewBox="0 0 40 40" fill="none" xmlns="http://www.w3.org/2000/svg">
<mask id="mask0_470_268" style="mask-type:alpha" maskUnits="userSpaceOnUse" x="0" y="0" width="40" height="40">
<rect width="40" height="40" fill="#D9D9D9"/>
</mask>
<g mask="url(#mask0_470_268)">
<path d="M1.66666 35V32.2222H38.3333V35H1.66666ZM6.11108 30C5.36108 30 4.71062 29.7245 4.15971 29.1736C3.60879 28.6227 3.33333 27.9722 3.33333 27.2222V7.77775C3.33333 7.02775 3.60879 6.37729 4.15971 5.82638C4.71062 5.27546 5.36108 5 6.11108 5H33.8889C34.6389 5 35.2894 5.27546 35.8403 5.82638C36.3912 6.37729 36.6667 7.02775 36.6667 7.77775V27.2222C36.6667 27.9722 36.3912 28.6227 35.8403 29.1736C35.2894 29.7245 34.6389 30 33.8889 30H6.11108ZM6.11108 27.2222H33.8889V7.77775H6.11108V27.2222Z" fill="#444444"/>
</g>
</svg>
