<svg width="24" height="24" viewBox="0 0 24 24" fill="none" xmlns="http://www.w3.org/2000/svg">
<mask id="mask0_482_402" style="mask-type:alpha" maskUnits="userSpaceOnUse" x="0" y="0" width="24" height="24">
<rect width="24" height="24" fill="#D9D9D9"/>
</mask>
<g mask="url(#mask0_482_402)">
<path d="M8 22C6.61667 22 5.4375 21.5125 4.4625 20.5375C3.4875 19.5625 3 18.3833 3 17C3 15.6167 3.4875 14.4375 4.4625 13.4625C5.4375 12.4875 6.61667 12 8 12V14C7.16667 14 6.45833 14.2917 5.875 14.875C5.29167 15.4583 5 16.1667 5 17C5 17.8333 5.29167 18.5417 5.875 19.125C6.45833 19.7083 7.16667 20 8 20C8.83333 20 9.54167 19.7083 10.125 19.125C10.7083 18.5417 11 17.8333 11 17H13C13 18.3833 12.5125 19.5625 11.5375 20.5375C10.5625 21.5125 9.38333 22 8 22ZM17 21V16H11C10.2667 16 9.7 15.6875 9.3 15.0625C8.9 14.4375 8.85 13.7833 9.15 13.1L11 9H8.725L8.125 10.55L6.2 10L6.9 8.2C7.05 7.81667 7.29583 7.52083 7.6375 7.3125C7.97917 7.10417 8.35 7 8.75 7H13.95C14.7 7 15.2708 7.30417 15.6625 7.9125C16.0542 8.52083 16.1 9.16667 15.8 9.85L14.15 13.5H17C17.55 13.5 18.0208 13.6958 18.4125 14.0875C18.8042 14.4792 19 14.95 19 15.5V21H17ZM16 6.5C15.45 6.5 14.9792 6.30417 14.5875 5.9125C14.1958 5.52083 14 5.05 14 4.5C14 3.95 14.1958 3.47917 14.5875 3.0875C14.9792 2.69583 15.45 2.5 16 2.5C16.55 2.5 17.0208 2.69583 17.4125 3.0875C17.8042 3.47917 18 3.95 18 4.5C18 5.05 17.8042 5.52083 17.4125 5.9125C17.0208 6.30417 16.55 6.5 16 6.5Z" fill="#444444"/>
</g>
</svg>
