<svg width="40" height="40" viewBox="0 0 40 40" fill="none" xmlns="http://www.w3.org/2000/svg">
<mask id="mask0_475_348" style="mask-type:alpha" maskUnits="userSpaceOnUse" x="0" y="0" width="40" height="40">
<rect width="40" height="40" fill="#D9D9D9"/>
</mask>
<g mask="url(#mask0_475_348)">
<path d="M13.1441 36.6667C10.9091 36.6667 8.99306 35.8681 7.39583 34.2709C5.79861 32.6737 5 30.7593 5 28.5279C5 26.2964 5.79861 24.3821 7.39583 22.7848C8.99306 21.1876 10.9074 20.389 13.1389 20.389V23.1667C11.6759 23.1667 10.4166 23.6945 9.36108 24.7501C8.30553 25.8056 7.77775 27.0649 7.77775 28.5279C7.77775 29.9908 8.30553 31.2501 9.36108 32.3057C10.4166 33.3612 11.6759 33.889 13.1389 33.889C14.6018 33.889 15.8518 33.3797 16.8889 32.3612C17.9259 31.3427 18.4445 29.963 18.4445 28.2223H21.2222C21.2222 30.713 20.4346 32.7431 18.8594 34.3126C17.2841 35.882 15.379 36.6667 13.1441 36.6667ZM28.5278 35.0001V26.8334H18.0555C16.7407 26.8334 15.7454 26.308 15.0694 25.257C14.3935 24.2061 14.3241 23.0927 14.8611 21.9167L18.2778 14.389H14.4028L13.3195 17.2778L10.5833 16.4167L11.75 13.3334C11.963 12.8056 12.2801 12.3867 12.7014 12.0765C13.1227 11.7663 13.6494 11.6112 14.2816 11.6112H22.5C23.6574 11.6112 24.5532 12.0765 25.1875 13.007C25.8217 13.9376 25.9074 14.9075 25.4444 15.9167L22.0278 23.2501H28.1111C28.9896 23.2501 29.7416 23.5629 30.3672 24.1885C30.9928 24.814 31.3055 25.5661 31.3055 26.4445V35.0001H28.5278ZM26.4467 10.4445C25.5841 10.4445 24.8449 10.1374 24.2292 9.52312C23.6134 8.90884 23.3055 8.17041 23.3055 7.30783C23.3055 6.44525 23.6127 5.70609 24.227 5.09037C24.8412 4.47462 25.5796 4.16675 26.4422 4.16675C27.3048 4.16675 28.044 4.47389 28.6597 5.08817C29.2755 5.70242 29.5833 6.44083 29.5833 7.30342C29.5833 8.166 29.2762 8.90517 28.6619 9.52092C28.0477 10.1366 27.3093 10.4445 26.4467 10.4445Z" fill="#444444"/>
</g>
</svg>
