<svg width="40" height="40" viewBox="0 0 40 40" fill="none" xmlns="http://www.w3.org/2000/svg">
<mask id="mask0_469_3186" style="mask-type:alpha" maskUnits="userSpaceOnUse" x="0" y="0" width="40" height="40">
<rect width="40" height="40" fill="#D9D9D9"/>
</mask>
<g mask="url(#mask0_469_3186)">
<path d="M10 25.8334H24.4445V23.0556H10V25.8334ZM27.2223 25.8334H30V23.0556H27.2223V25.8334ZM10 20.2779H12.7778V17.5001H10V20.2779ZM15.5555 20.2779H30V17.5001H15.5555V20.2779ZM6.11109 33.3334C5.36109 33.3334 4.71063 33.058 4.15971 32.507C3.60879 31.9561 3.33334 31.3057 3.33334 30.5557V9.4445C3.33334 8.6945 3.60879 8.04404 4.15971 7.49312C4.71063 6.94221 5.36109 6.66675 6.11109 6.66675H33.8889C34.6389 6.66675 35.2894 6.94221 35.8403 7.49312C36.3912 8.04404 36.6667 8.6945 36.6667 9.4445V30.5557C36.6667 31.3057 36.3912 31.9561 35.8403 32.507C35.2894 33.058 34.6389 33.3334 33.8889 33.3334H6.11109ZM6.11109 30.5557H33.8889V9.4445H6.11109V30.5557Z" fill="#444444"/>
</g>
</svg>
