<svg width="40" height="40" viewBox="0 0 40 40" fill="none" xmlns="http://www.w3.org/2000/svg">
<mask id="mask0_469_3288" style="mask-type:alpha" maskUnits="userSpaceOnUse" x="0" y="0" width="40" height="40">
<rect width="40" height="40" fill="#D9D9D9"/>
</mask>
<g mask="url(#mask0_469_3288)">
<path d="M20 35C18.2222 35 16.713 34.3796 15.4722 33.1389C14.2315 31.8982 13.6111 30.3889 13.6111 28.6111C13.6111 26.8333 14.2315 25.3241 15.4722 24.0833C16.713 22.8426 18.2222 22.2223 20 22.2223C21.7778 22.2223 23.287 22.8426 24.5278 24.0833C25.7685 25.3241 26.3889 26.8333 26.3889 28.6111C26.3889 30.3889 25.7685 31.8982 24.5278 33.1389C23.287 34.3796 21.7778 35 20 35ZM20 32.2222C21.0092 32.2222 21.8634 31.8727 22.5625 31.1736C23.2616 30.4745 23.6111 29.6204 23.6111 28.6111C23.6111 27.6018 23.2616 26.7477 22.5625 26.0486C21.8634 25.3495 21.0092 25 20 25C18.9907 25 18.1366 25.3495 17.4375 26.0486C16.7384 26.7477 16.3889 27.6018 16.3889 28.6111C16.3889 29.6204 16.7384 30.4745 17.4375 31.1736C18.1366 31.8727 18.9907 32.2222 20 32.2222ZM5.08333 13.6667L3.04166 11.7639C5.27316 9.62499 7.82872 7.96296 10.7083 6.77779C13.588 5.5926 16.6852 5 20 5C23.3148 5 26.412 5.5926 29.2917 6.77779C32.1713 7.96296 34.7268 9.62499 36.9583 11.7639L34.9167 13.6667C32.9259 11.8056 30.6759 10.3588 28.1667 9.32638C25.6574 8.29396 22.9352 7.77775 20 7.77775C17.0648 7.77775 14.3426 8.29396 11.8333 9.32638C9.32408 10.3588 7.07408 11.8056 5.08333 13.6667ZM28.8333 19.6805C27.6481 18.662 26.3055 17.8588 24.8055 17.2708C23.3055 16.6829 21.7037 16.3889 20 16.3889C18.2963 16.3889 16.7014 16.6829 15.2153 17.2708C13.7292 17.8588 12.3796 18.662 11.1667 19.6805L9.125 17.75C10.5694 16.4537 12.2245 15.4398 14.0903 14.7083C15.956 13.9769 17.9259 13.6111 20 13.6111C22.0741 13.6111 24.037 13.9769 25.8889 14.7083C27.7407 15.4398 29.3889 16.4537 30.8333 17.75L28.8333 19.6805Z" fill="#444444"/>
</g>
</svg>
