<svg width="24" height="24" viewBox="0 0 24 24" fill="none" xmlns="http://www.w3.org/2000/svg">
<mask id="mask0_443_2838" style="mask-type:alpha" maskUnits="userSpaceOnUse" x="0" y="0" width="24" height="24">
<rect width="24" height="24" fill="#D9D9D9"/>
</mask>
<g mask="url(#mask0_443_2838)">
<path d="M12 21C10.9 21 9.95833 20.6083 9.175 19.825C8.39166 19.0417 8 18.1 8 17C8 15.9 8.39166 14.9583 9.175 14.175C9.95833 13.3917 10.9 13 12 13C13.1 13 14.0417 13.3917 14.825 14.175C15.6083 14.9583 16 15.9 16 17C16 18.1 15.6083 19.0417 14.825 19.825C14.0417 20.6083 13.1 21 12 21ZM12 19C12.55 19 13.0208 18.8042 13.4125 18.4125C13.8042 18.0208 14 17.55 14 17C14 16.45 13.8042 15.9792 13.4125 15.5875C13.0208 15.1958 12.55 15 12 15C11.45 15 10.9792 15.1958 10.5875 15.5875C10.1958 15.9792 10 16.45 10 17C10 17.55 10.1958 18.0208 10.5875 18.4125C10.9792 18.8042 11.45 19 12 19ZM3.05 8.6L1.575 7.225C2.925 5.90833 4.49166 4.875 6.275 4.125C8.05833 3.375 9.96666 3 12 3C14.0333 3 15.9417 3.375 17.725 4.125C19.5083 4.875 21.075 5.90833 22.425 7.225L20.95 8.6C19.7667 7.48333 18.4167 6.60417 16.9 5.9625C15.3833 5.32083 13.75 5 12 5C10.25 5 8.61666 5.32083 7.1 5.9625C5.58333 6.60417 4.23333 7.48333 3.05 8.6ZM17.3 12.025C16.6 11.3917 15.8 10.8958 14.9 10.5375C14 10.1792 13.0333 10 12 10C10.9667 10 10.0042 10.1792 9.1125 10.5375C8.22083 10.8958 7.41666 11.3917 6.7 12.025L5.225 10.65C6.125 9.81667 7.15416 9.16667 8.3125 8.7C9.47083 8.23333 10.7 8 12 8C13.3 8 14.525 8.23333 15.675 8.7C16.825 9.16667 17.85 9.81667 18.75 10.65L17.3 12.025Z" fill="#444444"/>
</g>
</svg>
