<svg width="40" height="40" viewBox="0 0 40 40" fill="none" xmlns="http://www.w3.org/2000/svg">
<mask id="mask0_447_3024" style="mask-type:alpha" maskUnits="userSpaceOnUse" x="0" y="0" width="40" height="40">
<rect width="40" height="40" fill="#D9D9D9"/>
</mask>
<g mask="url(#mask0_447_3024)">
<path d="M7.875 33.3334C6.20833 33.3334 4.78472 32.7362 3.60417 31.5417C2.42361 30.3473 1.80556 28.9029 1.75 27.2084C1.75 26.9584 1.76389 26.7084 1.79167 26.4584C1.81944 26.2084 1.86111 25.9584 1.91667 25.7084L5.41667 11.7084C5.80556 10.2084 6.59722 8.99314 7.79167 8.06258C8.98611 7.13203 10.3472 6.66675 11.875 6.66675H28.125C29.6528 6.66675 31.0139 7.13203 32.2083 8.06258C33.4028 8.99314 34.1944 10.2084 34.5833 11.7084L38.0833 25.7084C38.1389 25.9584 38.1875 26.2154 38.2292 26.4792C38.2708 26.7431 38.2917 27.0001 38.2917 27.2501C38.2917 28.9445 37.6875 30.382 36.4792 31.5626C35.2708 32.7431 33.8194 33.3334 32.125 33.3334C30.9583 33.3334 29.875 33.0279 28.875 32.4167C27.875 31.8056 27.125 30.9723 26.625 29.9167L25.4583 27.5001C25.3194 27.2223 25.1111 27.014 24.8333 26.8751C24.5556 26.7362 24.2639 26.6667 23.9583 26.6667H16.0417C15.7361 26.6667 15.4444 26.7362 15.1667 26.8751C14.8889 27.014 14.6806 27.2223 14.5417 27.5001L13.375 29.9167C12.875 30.9723 12.125 31.8056 11.125 32.4167C10.125 33.0279 9.04167 33.3334 7.875 33.3334ZM7.99062 30.5557C8.61724 30.5557 9.19367 30.3892 9.71992 30.0564C10.2462 29.7236 10.6451 29.2743 10.9167 28.7084L12.0833 26.3334C12.463 25.5649 13.0046 24.9654 13.7083 24.5348C14.412 24.1043 15.1898 23.889 16.0417 23.889H23.9583C24.8102 23.889 25.588 24.1112 26.2917 24.5557C26.9954 25.0001 27.5509 25.5927 27.9583 26.3334L29.125 28.7084C29.3966 29.2743 29.7955 29.7236 30.3218 30.0564C30.848 30.3892 31.4237 30.5557 32.0487 30.5557C32.9699 30.5557 33.7639 30.2432 34.4306 29.6182C35.0973 28.9931 35.4445 28.2177 35.4723 27.2917C35.4723 27.2269 35.4352 26.9168 35.3611 26.3612L31.8611 12.4029C31.6482 11.5417 31.2 10.8334 30.5167 10.2778C29.8333 9.72228 29.0361 9.4445 28.125 9.4445H11.875C10.9731 9.4445 10.1758 9.71765 9.48325 10.264C8.7907 10.8103 8.34257 11.5232 8.13888 12.4029L4.63888 26.3612C4.60185 26.4908 4.56481 26.7871 4.52775 27.2501C4.52775 28.185 4.86579 28.9697 5.54188 29.604C6.21796 30.2385 7.03421 30.5557 7.99062 30.5557ZM22.5049 18.0556C22.8998 18.0556 23.2292 17.9221 23.493 17.6549C23.7569 17.3878 23.8889 17.0568 23.8889 16.6619C23.8889 16.267 23.7553 15.9376 23.4882 15.6737C23.221 15.4098 22.89 15.2779 22.4951 15.2779C22.1002 15.2779 21.7708 15.4114 21.507 15.6786C21.2431 15.9457 21.1111 16.2767 21.1111 16.6716C21.1111 17.0665 21.2447 17.3959 21.5118 17.6598C21.779 17.9237 22.11 18.0556 22.5049 18.0556ZM25.8382 14.7223C26.2331 14.7223 26.5625 14.5887 26.8264 14.3216C27.0903 14.0544 27.2222 13.7234 27.2222 13.3285C27.2222 12.9337 27.0886 12.6043 26.8215 12.3404C26.5544 12.0765 26.2233 11.9445 25.8285 11.9445C25.4336 11.9445 25.1042 12.0781 24.8403 12.3452C24.5764 12.6124 24.4445 12.9434 24.4445 13.3383C24.4445 13.7332 24.578 14.0626 24.8452 14.3265C25.1123 14.5903 25.4433 14.7223 25.8382 14.7223ZM25.8382 21.389C26.2331 21.389 26.5625 21.2554 26.8264 20.9882C27.0903 20.7211 27.2222 20.3901 27.2222 19.9952C27.2222 19.6003 27.0886 19.2709 26.8215 19.007C26.5544 18.7432 26.2233 18.6112 25.8285 18.6112C25.4336 18.6112 25.1042 18.7448 24.8403 19.0119C24.5764 19.2791 24.4445 19.6101 24.4445 20.005C24.4445 20.3998 24.578 20.7292 24.8452 20.9931C25.1123 21.257 25.4433 21.389 25.8382 21.389ZM29.1715 18.0556C29.5664 18.0556 29.8958 17.9221 30.1597 17.6549C30.4236 17.3878 30.5555 17.0568 30.5555 16.6619C30.5555 16.267 30.422 15.9376 30.1548 15.6737C29.8877 15.4098 29.5567 15.2779 29.1618 15.2779C28.7669 15.2779 28.4375 15.4114 28.1736 15.6786C27.9097 15.9457 27.7778 16.2767 27.7778 16.6716C27.7778 17.0665 27.9114 17.3959 28.1785 17.6598C28.4456 17.9237 28.7767 18.0556 29.1715 18.0556ZM14.1699 20.6945C14.4918 20.6945 14.757 20.5896 14.9653 20.3797C15.1736 20.1698 15.2778 19.9044 15.2778 19.5834V17.7779H17.0833C17.4043 17.7779 17.6698 17.6726 17.8796 17.4621C18.0895 17.2517 18.1945 16.9854 18.1945 16.6635C18.1945 16.3416 18.0895 16.0765 17.8796 15.8681C17.6698 15.6598 17.4043 15.5556 17.0833 15.5556H15.2778V13.7501C15.2778 13.4291 15.1725 13.1637 14.962 12.9538C14.7516 12.7439 14.4854 12.639 14.1634 12.639C13.8415 12.639 13.5764 12.7439 13.368 12.9538C13.1597 13.1637 13.0555 13.4291 13.0555 13.7501V15.5556H11.25C10.929 15.5556 10.6636 15.6609 10.4537 15.8714C10.2438 16.0818 10.1389 16.3481 10.1389 16.67C10.1389 16.9919 10.2438 17.257 10.4537 17.4654C10.6636 17.6737 10.929 17.7779 11.25 17.7779H13.0555V19.5834C13.0555 19.9044 13.1608 20.1698 13.3713 20.3797C13.5818 20.5896 13.848 20.6945 14.1699 20.6945Z" fill="#444444"/>
</g>
</svg>
